# Blender 5.2.1 LTS
# www.blender.org
mtllib pink-car.mtl
o car
v 1.000000 0.701672 -2.349394
v 1.000000 -0.018241 -2.349394
v 0.962987 0.578652 2.204326
v 0.956393 0.091261 2.325515
v -1.000000 0.701672 -2.349394
v -1.000000 -0.018241 -2.349394
v -0.963946 0.578652 2.204326
v -0.970539 0.091261 2.325515
v 1.000000 0.737722 -1.048165
v 0.951173 0.735719 1.064587
v -0.951173 0.735719 1.064587
v -1.000000 0.729334 -1.056553
v 1.000000 1.545743 -1.048165
v 0.951173 1.547746 0.229867
v -0.951173 1.547746 0.229867
v -1.000000 1.554132 -1.056553
v -1.000000 0.729334 1.031481
v 1.000000 0.737722 1.010829
v -1.000000 1.554132 0.183634
v 1.000000 1.545743 0.180227
v -0.951173 0.718589 1.047923
v 0.951173 0.718589 1.047923
v -0.951173 1.530616 0.213203
v 0.951173 1.530616 0.213203
v 0.970810 0.730862 -1.084214
v 1.000000 0.701672 1.099585
v 0.970810 1.552603 -1.084214
v 1.000000 1.581793 0.194869
v 0.938871 0.737722 -1.048165
v 0.938871 0.737722 1.010829
v 0.938871 1.545743 -1.048165
v 0.938871 1.545743 0.180227
v 0.970543 0.737722 -1.048165
v 0.970543 0.737722 1.010829
v 0.970543 1.545743 -1.048165
v 0.970543 1.545743 0.180227
v -1.000000 0.701672 1.099585
v -0.970810 0.730862 -1.084214
v -1.000000 1.581793 0.194869
v -0.970810 1.552603 -1.084214
v -0.954505 0.729334 1.031481
v -0.954505 0.729334 -1.056553
v -0.954505 1.554132 0.183634
v -0.954505 1.554132 -1.056553
v -0.976656 0.729334 1.031481
v -0.976656 0.729334 -1.056553
v -0.976656 1.554132 0.183634
v -0.976656 1.554132 -1.056553
v 0.992447 0.055810 1.835622
v -1.007553 0.055810 1.835622
v 1.000000 0.384840 1.693077
v 1.000000 0.502817 1.516511
v 1.000000 0.452524 1.610604
v 1.000000 0.544246 1.308237
v 1.000000 0.502615 1.099585
v 1.000000 0.502817 1.099963
v 1.000000 0.533788 1.202060
v 1.000000 0.533788 1.414414
v 0.992447 0.074051 1.837419
v 1.000000 0.302367 1.760761
v 1.000000 0.208274 1.811054
v 1.000000 0.106177 1.842025
v 1.000000 0.384840 0.923397
v 1.000000 0.452524 1.005870
v 1.000000 0.000000 0.763991
v 1.000000 -0.018241 0.765788
v 1.000000 0.106177 0.774449
v 1.000000 0.208274 0.805420
v 1.000000 0.302367 0.855713
v -1.000000 -0.018241 0.765788
v -1.000000 0.384840 1.693077
v -1.000000 0.452524 1.610604
v -1.000000 0.502817 1.516511
v -1.000000 0.533788 1.414414
v -1.007553 0.074051 1.837419
v -1.000000 0.106177 1.842025
v -1.000000 0.302367 1.760761
v -1.000000 0.208274 1.811054
v -1.000000 0.544246 1.308237
v -1.000000 0.502615 1.099585
v -1.000000 0.502817 1.099963
v -1.000000 0.533788 1.202060
v -1.000000 0.384840 0.923397
v -1.000000 0.452524 1.005870
v -1.000000 0.106177 0.774449
v -1.000000 0.208274 0.805420
v -1.000000 0.302367 0.855713
v -1.000000 0.000000 0.763991
v -1.000000 0.544246 -1.135420
v -1.000000 0.539202 -1.084214
v -1.000000 0.533788 -1.241597
v -1.000000 0.502817 -1.343694
v -1.000000 0.452524 -1.437787
v -1.000000 0.302367 -1.587944
v -1.000000 0.384840 -1.520260
v -1.000000 0.208274 -1.638237
v -1.000000 0.000000 -1.679666
v -1.000000 -0.018241 -1.677869
v -1.000000 0.106177 -1.669208
v 1.000000 0.544246 -1.135420
v 1.000000 0.539202 -1.084214
v 1.000000 0.533788 -1.241597
v 1.000000 0.502817 -1.343694
v 1.000000 0.452524 -1.437787
v 1.000000 0.384840 -1.520260
v 1.000000 0.302367 -1.587944
v 1.000000 0.000000 -1.679666
v 1.000000 -0.018241 -1.677869
v 1.000000 0.106177 -1.669208
v 1.000000 0.208274 -1.638237
v 1.000000 -0.018241 -0.592971
v 1.000000 0.000000 -0.591175
v 1.000000 0.106177 -0.601632
v 1.000000 0.208274 -0.632603
v 1.000000 0.302367 -0.682897
v 1.000000 0.533788 -1.029243
v 1.000000 0.502817 -0.927146
v 1.000000 0.384840 -0.750580
v 1.000000 0.452524 -0.833054
v -1.000000 -0.018241 -0.592971
v -1.000000 0.000000 -0.591175
v -1.000000 0.106177 -0.601632
v -1.000000 0.208274 -0.632603
v -1.000000 0.302367 -0.682897
v -1.000000 0.533788 -1.029243
v -1.000000 0.384840 -0.750580
v -1.000000 0.452524 -0.833054
v -1.000000 0.502817 -0.927146
v 1.000000 0.701672 -1.084214
v -1.000000 0.701672 -1.084214
v 1.000000 1.581793 -1.084214
v -1.000000 1.581793 -1.084214
v 0.970810 0.730862 -1.054198
v -0.970810 0.730862 -1.054198
v 0.970810 1.552603 -1.054198
v -0.970810 1.552603 -1.054198
v -1.030208 0.256271 2.392523
v -1.030208 -0.021442 2.392523
v -1.030208 0.256271 1.807821
v -1.030208 -0.021442 1.807821
v 1.030208 0.256271 2.392523
v 1.030208 -0.021442 2.392523
v 1.030208 0.256271 1.807821
v 1.030208 -0.021442 1.807821
v -1.030208 0.256271 -1.596081
v -1.030208 -0.021442 -1.596081
v -1.030208 0.256271 -2.406557
v -1.030208 -0.021442 -2.406557
v 1.030208 0.256271 -1.596081
v 1.030208 -0.021442 -1.596081
v 1.030208 0.256271 -2.406557
v 1.030208 -0.021442 -2.406557
v 1.276911 0.680029 1.029241
v 1.276911 0.795177 0.911116
v 1.267437 0.638647 0.824113
v 1.267437 0.816659 0.824113
v 1.025399 0.680029 1.029241
v 1.025399 0.795177 0.911116
v 1.034873 0.638647 0.824113
v 1.034873 0.816659 0.824113
v 0.958157 0.627917 0.902242
v 0.958157 0.693019 0.902242
v 0.958157 0.627917 0.837140
v 0.958157 0.693019 0.837140
v 1.065764 0.627917 0.902242
v 1.065764 0.693019 0.902242
v 1.065764 0.627917 0.837140
v 1.065764 0.693019 0.837140
v -1.034729 0.680029 1.029241
v -1.034729 0.795177 0.911116
v -1.045881 0.640325 0.824113
v -1.045881 0.814981 0.824113
v -1.286241 0.680029 1.029241
v -1.286241 0.795177 0.911116
v -1.275089 0.640325 0.824113
v -1.275089 0.814981 0.824113
v -1.079249 0.627917 0.902242
v -1.079249 0.693019 0.902242
v -1.079249 0.627917 0.837140
v -1.079249 0.693019 0.837140
v -0.971643 0.627917 0.902242
v -0.971643 0.693019 0.902242
v -0.971643 0.627917 0.837140
v -0.971643 0.693019 0.837140
v -1.034729 0.826133 0.824113
v -1.034729 0.629173 0.824113
v -1.286241 0.629173 0.824113
v -1.286241 0.826133 0.824113
v -1.045881 0.814981 0.832265
v -1.045881 0.640325 0.832265
v -1.275089 0.640325 0.832265
v -1.275089 0.814981 0.832265
v 1.276911 0.826133 0.824113
v 1.276911 0.629173 0.824113
v 1.025399 0.629173 0.824113
v 1.025399 0.826133 0.824113
v 1.267437 0.816659 0.834056
v 1.267437 0.638647 0.834056
v 1.034873 0.638647 0.834056
v 1.034873 0.816659 0.834056
v 1.000000 0.614103 2.195511
v -1.000000 0.614103 2.195511
v 0.992447 0.055810 2.334330
v -1.007553 0.055810 2.334330
v 0.962987 0.569566 2.167783
v -0.963946 0.569566 2.167783
v 0.956393 0.082175 2.288972
v -0.970539 0.082175 2.288972
v -0.924534 0.267448 2.315571
v -0.924534 0.522945 2.315571
v -0.924534 0.267448 2.178975
v -0.924534 0.522945 2.178975
v -0.513373 0.267448 2.315571
v -0.513373 0.522945 2.315571
v -0.513373 0.267448 2.178975
v -0.513373 0.522945 2.178975
v 0.476129 0.267448 2.315571
v 0.476129 0.522945 2.315571
v 0.476129 0.267448 2.178975
v 0.476129 0.522945 2.178975
v 0.900507 0.267448 2.315571
v 0.900507 0.522945 2.315571
v 0.900507 0.267448 2.178975
v 0.900507 0.522945 2.178975
vn -0.0000 0.9968 0.0796
vn -0.9999 0.0127 -0.0032
vn -1.0000 -0.0000 -0.0000
vn -0.0000 -1.0000 -0.0000
vn 1.0000 -0.0080 0.0046
vn -0.0000 -0.0000 -1.0000
vn 1.0000 -0.0000 -0.0000
vn -1.0000 0.0080 -0.0046
vn -0.0000 1.0000 -0.0000
vn -0.0000 -0.0000 1.0000
vn -0.0000 0.7168 0.6973
vn -0.0000 0.6973 -0.7168
vn -0.0000 -0.6973 0.7168
vn -0.0000 -0.7168 -0.6973
vn -0.0000 0.0980 0.9952
vn -0.0000 0.0980 -0.9952
vn -0.0000 0.1419 -0.9899
vn -0.0000 -0.2903 -0.9569
vn -0.0000 -0.4714 -0.8819
vn -0.0000 -0.6344 -0.7730
vn -0.0000 -0.7730 -0.6344
vn -0.0000 -0.8819 -0.4714
vn -0.0000 -0.9569 -0.2903
vn -0.0000 -0.9952 -0.0980
vn -0.0000 -0.9952 0.0980
vn -0.0000 -0.9569 0.2903
vn -0.0000 -0.8819 0.4714
vn -0.0000 -0.7730 0.6344
vn -0.0000 -0.6344 0.7730
vn -0.0000 -0.4714 0.8819
vn -0.0000 -0.2903 0.9569
vn -0.0000 -0.0980 0.9952
vn -0.0000 -0.0980 -0.9952
vn -0.0000 -0.7161 -0.6980
vn -0.0000 0.9706 -0.2406
vn -0.0000 -0.9421 -0.3352
vn -0.0000 0.2413 0.9704
vn -0.0000 0.2413 0.9705
vn -0.0000 -0.9705 0.2413
vn 0.9999 -0.0127 0.0032
vn -0.0000 0.9705 -0.2413
vt 0.625000 0.664113
vt 0.875000 0.664113
vt 0.875000 0.750000
vt 0.625000 0.750000
vt 0.390875 0.754567
vt 0.609125 0.754567
vt 0.570332 0.172490
vt 0.568580 0.169220
vt 0.625000 0.169220
vt 0.625000 0.250000
vt 0.375000 0.250000
vt 0.375000 0.207124
vt 0.381335 0.207239
vt 0.418206 0.206571
vt 0.453661 0.204594
vt 0.486336 0.201383
vt 0.514976 0.197061
vt 0.538480 0.191795
vt 0.555945 0.185788
vt 0.566700 0.179269
vt 0.375000 0.750000
vt 0.125000 0.750000
vt 0.125000 0.715729
vt 0.375000 0.715729
vt 0.555945 0.664139
vt 0.555875 0.664113
vt 0.381335 0.715852
vt 0.418206 0.715134
vt 0.453661 0.713005
vt 0.486336 0.709549
vt 0.514976 0.704898
vt 0.538480 0.699230
vt 0.555945 0.692764
vt 0.566700 0.685748
vt 0.570331 0.678451
vt 0.566700 0.671155
vt 0.625000 0.500000
vt 0.375000 0.500000
vt 0.625000 0.580780
vt 0.568580 0.580780
vt 0.570331 0.577510
vt 0.566700 0.570731
vt 0.555945 0.564212
vt 0.538480 0.558205
vt 0.514976 0.552939
vt 0.486336 0.548617
vt 0.453661 0.545406
vt 0.418206 0.543429
vt 0.381335 0.542761
vt 0.375000 0.542876
vt 0.538480 0.660537
vt 0.514976 0.657390
vt 0.486336 0.654807
vt 0.453661 0.652888
vt 0.418206 0.651706
vt 0.381335 0.651307
vt 0.375000 0.651375
vt 0.375000 0.599525
vt 0.381334 0.599594
vt 0.418206 0.599195
vt 0.453661 0.598013
vt 0.486336 0.596094
vt 0.514976 0.593511
vt 0.538480 0.590364
vt 0.555945 0.586773
vt 0.566700 0.582877
vt 0.125000 0.542876
vt 0.125000 0.500000
vt 0.125000 0.651375
vt 0.125000 0.599525
vt 0.381335 0.034148
vt 0.375000 0.034271
vt 0.375000 0.000000
vt 0.625000 0.000000
vt 0.625000 0.085887
vt 0.555875 0.085887
vt 0.555945 0.085861
vt 0.566700 0.078845
vt 0.570331 0.071548
vt 0.566700 0.064252
vt 0.555945 0.057236
vt 0.538480 0.050770
vt 0.514976 0.045102
vt 0.486336 0.040451
vt 0.453661 0.036995
vt 0.418206 0.034866
vt 0.381334 0.150406
vt 0.375000 0.150475
vt 0.375000 0.098625
vt 0.381335 0.098693
vt 0.418206 0.098294
vt 0.453660 0.097112
vt 0.486336 0.095193
vt 0.514976 0.092610
vt 0.538480 0.089463
vt 0.566700 0.167123
vt 0.555945 0.163227
vt 0.538480 0.159636
vt 0.514976 0.156489
vt 0.486336 0.153906
vt 0.453660 0.151987
vt 0.418206 0.150805
vt 0.875000 0.500000
vt 0.875000 0.580780
vt 0.625000 0.167603
vt 0.625000 0.168007
vt 0.625000 0.582364
vt 0.625000 0.582884
vt 0.871351 0.580780
vt 0.871351 0.580780
vt 0.868897 0.664113
vt 0.868897 0.664113
vt 0.631103 0.664113
vt 0.631103 0.664113
vt 0.625000 0.662081
vt 0.625000 0.661530
vt 0.625000 0.087445
vt 0.625000 0.087874
vt 0.994631 0.929112
vt 1.000000 0.929112
vt 1.000000 0.595038
vt 0.994631 0.595038
vt 0.505369 0.595038
vt 0.500000 0.595038
vt 0.500000 0.929112
vt 0.505369 0.929112
vt 0.468750 0.595038
vt 0.468750 0.929112
vt 0.437500 0.595038
vt 0.437500 0.929112
vt 0.406250 0.595038
vt 0.406250 0.929112
vt 0.375000 0.595038
vt 0.375000 0.929112
vt 0.343750 0.595038
vt 0.343750 0.929112
vt 0.312500 0.595038
vt 0.312500 0.929112
vt 0.281250 0.595038
vt 0.281250 0.929112
vt 0.250000 0.595038
vt 0.250000 0.929112
vt 0.218750 0.595038
vt 0.218750 0.929112
vt 0.187500 0.595038
vt 0.187500 0.929112
vt 0.187374 0.595038
vt 0.156250 0.595038
vt 0.156250 0.929112
vt 0.187375 0.929112
vt 0.125000 0.595038
vt 0.125000 0.929112
vt 0.093750 0.929112
vt 0.093750 0.595038
vt 0.062500 0.929112
vt 0.062500 0.595038
vt 0.031250 0.929112
vt 0.031250 0.595038
vt 0.000000 0.929112
vt 0.000000 0.595038
vt 0.994631 0.929112
vt 0.505369 0.595038
vt 0.505369 0.929112
vt 0.375000 0.595038
vt 0.281250 0.595038
vt 0.265071 0.595038
vt 0.250000 0.595038
vt 0.265071 0.929112
vt 0.218750 0.595038
vt 0.156250 0.595038
vt 0.125000 0.595038
vt 0.628649 0.580780
vt 0.625000 1.000000
vt 0.375000 1.000000
vt 0.612974 0.259417
vt 0.612974 0.490583
vt 0.610845 0.261085
vt 0.610845 0.488915
vt 0.389155 0.261085
vt 0.389155 0.488915
vt 0.387026 0.259417
vt 0.387026 0.490583
vt 0.609125 0.995433
vt 0.390875 0.995433
s 0
usemtl Material
f 26/1/1 37/2/1 202/3/1 201/4/1
f 4/5/2 3/6/2 205/6/2 207/5/2
f 89/7/3 90/8/3 130/9/3 5/10/3 6/11/3 98/12/3 97/13/3 99/14/3 96/15/3 94/16/3 95/17/3 93/18/3 92/19/3 91/20/3
f 203/21/4 204/22/4 50/23/4 49/24/4
f 56/25/5 55/26/5 26/1/5 201/4/5 203/21/5 49/24/5 59/27/5 62/28/5 61/29/5 60/30/5 51/31/5 53/32/5 52/33/5 58/34/5 54/35/5 57/36/5
f 6/11/6 5/10/6 1/37/6 2/38/6
f 2/38/7 1/37/7 129/39/7 101/40/7 100/41/7 102/42/7 103/43/7 104/44/7 105/45/7 106/46/7 110/47/7 109/48/7 107/49/7 108/50/7
f 101/40/7 129/39/7 26/1/7 55/26/7 64/51/7 63/52/7 69/53/7 68/54/7 67/55/7 65/56/7 66/57/7 111/58/7 112/59/7 113/60/7 114/61/7 115/62/7 118/63/7 119/64/7 117/65/7 116/66/7
f 98/67/4 6/68/4 2/38/4 108/50/4
f 66/57/4 70/69/4 120/70/4 111/58/4
f 75/71/8 50/72/8 204/73/8 202/74/8 37/75/8 80/76/8 81/77/8 82/78/8 79/79/8 74/80/8 73/81/8 72/82/8 71/83/8 77/84/8 78/85/8 76/86/8
f 121/87/3 120/88/3 70/89/3 88/90/3 85/91/3 86/92/3 87/93/3 83/94/3 84/95/3 80/76/3 37/75/3 130/9/3 90/8/3 125/96/3 128/97/3 127/98/3 126/99/3 124/100/3 123/101/3 122/102/3
f 1/37/9 5/103/9 130/104/9 129/39/9
f 16/105/10 12/106/10 42/106/10 44/105/10
f 131/39/9 132/104/9 39/2/9 28/1/9
f 9/107/10 13/108/10 31/108/10 29/107/10
f 38/109/7 40/110/7 136/110/7 134/109/7
f 15/111/7 11/112/7 21/112/7 23/111/7
f 10/113/11 11/112/11 37/2/11 26/1/11
f 15/111/11 14/114/11 28/1/11 39/2/11
f 11/112/11 15/111/11 39/2/11 37/2/11
f 14/114/11 10/113/11 26/1/11 28/1/11
f 11/112/12 10/113/12 22/113/12 21/112/12
f 10/113/3 14/114/3 24/114/3 22/113/3
f 14/114/13 15/111/13 23/111/13 24/114/13
f 9/107/7 18/115/7 26/1/7 129/39/7
f 20/116/7 13/108/7 131/39/7 28/1/7
f 13/108/7 9/107/7 129/39/7 131/39/7
f 18/115/7 20/116/7 28/1/7 26/1/7
f 32/116/11 30/115/11 34/115/11 36/116/11
f 18/115/9 9/107/9 29/107/9 30/115/9
f 20/116/14 18/115/14 30/115/14 32/116/14
f 13/108/4 20/116/4 32/116/4 31/108/4
f 31/108/9 32/116/9 36/116/9 35/108/9
f 29/107/6 31/108/6 35/108/6 33/107/6
f 30/115/4 29/107/4 33/107/4 34/115/4
f 17/117/3 12/106/3 130/9/3 37/75/3
f 16/105/3 19/118/3 39/75/3 132/9/3
f 19/118/3 17/117/3 37/75/3 39/75/3
f 12/106/3 16/105/3 132/9/3 130/9/3
f 41/117/11 43/118/11 47/118/11 45/117/11
f 19/118/4 16/105/4 44/105/4 43/118/4
f 17/117/14 19/118/14 43/118/14 41/117/14
f 12/106/9 17/117/9 41/117/9 42/106/9
f 42/106/4 41/117/4 45/117/4 46/106/4
f 44/105/6 42/106/6 46/106/6 48/105/6
f 43/118/9 44/105/9 48/105/9 47/118/9
f 66/119/15 65/120/15 88/121/15 70/122/15
f 50/123/16 75/124/16 59/125/16 49/126/16
f 76/127/17 62/128/17 59/125/17 75/124/17
f 78/129/18 61/130/18 62/128/18 76/127/18
f 77/131/19 60/132/19 61/130/19 78/129/19
f 71/133/20 51/134/20 60/132/20 77/131/20
f 72/135/21 53/136/21 51/134/21 71/133/21
f 73/137/22 52/138/22 53/136/22 72/135/22
f 74/139/23 58/140/23 52/138/23 73/137/23
f 79/141/24 54/142/24 58/140/24 74/139/24
f 82/143/25 57/144/25 54/142/25 79/141/25
f 81/145/26 56/146/26 57/144/26 82/143/26
f 80/147/27 84/148/27 64/149/27 55/150/27 56/146/27 81/145/27
f 83/151/28 63/152/28 64/149/28 84/148/28
f 69/153/29 63/152/29 83/151/29 87/154/29
f 68/155/30 69/153/30 87/154/30 86/156/30
f 67/157/31 68/155/31 86/156/31 85/158/31
f 65/159/32 67/157/32 85/158/32 88/160/32
f 108/161/15 107/120/15 97/121/15 98/122/15
f 120/162/16 121/124/16 112/125/16 111/163/16
f 122/127/33 113/128/33 112/125/33 121/124/33
f 123/129/18 114/130/18 113/128/18 122/127/18
f 124/131/19 115/132/19 114/130/19 123/129/19
f 126/164/20 118/134/20 115/132/20 124/131/20
f 127/135/21 119/136/21 118/134/21 126/164/21
f 128/137/22 117/138/22 119/136/22 127/135/22
f 125/165/23 116/140/23 117/138/23 128/137/23
f 90/166/24 89/167/24 100/142/24 101/168/24 116/140/24 125/165/24
f 91/169/25 102/144/25 100/142/25 89/167/25
f 92/145/26 103/146/26 102/144/26 91/169/26
f 93/170/27 104/149/27 103/146/27 92/145/27
f 95/171/28 105/152/28 104/149/28 93/170/28
f 95/171/29 94/154/29 106/153/29 105/152/29
f 94/154/30 96/156/30 110/155/30 106/153/30
f 96/156/31 99/158/31 109/157/31 110/155/31
f 99/158/32 97/160/32 107/159/32 109/157/32
f 38/109/6 25/172/6 129/39/6 130/104/6
f 27/172/6 40/110/6 132/104/6 131/39/6
f 25/172/6 27/172/6 131/39/6 129/39/6
f 40/110/6 38/109/6 130/104/6 132/104/6
f 40/110/4 27/172/4 135/172/4 136/110/4
f 27/172/3 25/172/3 133/172/3 135/172/3
f 25/172/9 38/109/9 134/109/9 133/172/9
f 153/73/3 154/74/3 193/10/3 194/11/3
f 156/175/9 160/176/9 200/176/9 197/175/9
f 195/38/7 196/37/7 158/4/7 157/21/7
f 157/21/34 158/4/34 154/173/34 153/174/34
f 194/68/35 195/38/35 157/21/35 153/22/35
f 196/37/36 193/103/36 154/3/36 158/4/36
f 161/73/3 162/74/3 164/10/3 163/11/3
f 163/11/6 164/10/6 168/37/6 167/38/6
f 167/38/7 168/37/7 166/4/7 165/21/7
f 165/21/10 166/4/10 162/173/10 161/174/10
f 163/68/4 167/38/4 165/21/4 161/22/4
f 168/37/9 164/103/9 162/3/9 166/4/9
f 169/73/3 170/74/3 185/10/3 186/11/3
f 172/177/9 176/178/9 192/178/9 189/177/9
f 187/38/7 188/37/7 174/4/7 173/21/7
f 173/21/34 174/4/34 170/173/34 169/174/34
f 186/68/35 187/38/35 173/21/35 169/22/35
f 188/37/36 185/103/36 170/3/36 174/4/36
f 177/73/3 178/74/3 180/10/3 179/11/3
f 179/11/6 180/10/6 184/37/6 183/38/6
f 183/38/7 184/37/7 182/4/7 181/21/7
f 181/21/10 182/4/10 178/173/10 177/174/10
f 179/68/4 183/38/4 181/21/4 177/22/4
f 184/37/9 180/103/9 178/3/9 182/4/9
f 172/177/10 171/179/10 186/11/10 185/10/10
f 171/179/10 175/180/10 187/38/10 186/11/10
f 176/178/10 172/177/10 185/10/10 188/37/10
f 175/180/10 176/178/10 188/37/10 187/38/10
f 171/179/7 172/177/7 189/177/7 190/179/7
f 176/178/3 175/180/3 191/180/3 192/178/3
f 175/180/4 171/179/4 190/179/4 191/180/4
f 156/175/10 155/181/10 194/11/10 193/10/10
f 155/181/10 159/182/10 195/38/10 194/11/10
f 160/176/10 156/175/10 193/10/10 196/37/10
f 159/182/10 160/176/10 196/37/10 195/38/10
f 155/181/7 156/175/7 197/175/7 198/181/7
f 160/176/3 159/182/3 199/182/3 200/176/3
f 159/182/4 155/181/4 198/181/4 199/182/4
f 7/183/37 3/6/37 201/4/37 202/173/37
f 4/5/37 8/184/37 204/174/37 203/21/37
f 3/6/38 4/5/38 203/21/38 201/4/38
f 8/184/38 7/183/38 202/173/38 204/174/38
f 207/5/38 205/6/38 206/183/38 208/184/38
f 3/6/39 7/183/39 206/183/39 205/6/39
f 7/183/40 8/184/40 208/184/40 206/183/40
f 8/184/41 4/5/41 207/5/41 208/184/41
usemtl Material.003
f 21/112/11 22/113/11 24/114/11 23/111/11
f 34/115/7 33/107/7 35/108/7 36/116/7
f 46/106/3 45/117/3 47/118/3 48/105/3
f 133/172/6 134/109/6 136/110/6 135/172/6
f 190/179/10 189/177/10 192/178/10 191/180/10
f 198/181/10 197/175/10 200/176/10 199/182/10
usemtl Material.004
f 137/73/7 138/74/7 140/10/7 139/11/7
f 139/11/10 140/10/10 144/37/10 143/38/10
f 143/38/3 144/37/3 142/4/3 141/21/3
f 141/21/6 142/4/6 138/173/6 137/174/6
f 139/68/4 143/38/4 141/21/4 137/22/4
f 144/37/9 140/103/9 138/3/9 142/4/9
f 145/73/7 146/74/7 148/10/7 147/11/7
f 147/11/10 148/10/10 152/37/10 151/38/10
f 151/38/3 152/37/3 150/4/3 149/21/3
f 149/21/6 150/4/6 146/173/6 145/174/6
f 147/68/4 151/38/4 149/21/4 145/22/4
f 152/37/9 148/103/9 146/3/9 150/4/9
f 209/73/3 210/74/3 212/10/3 211/11/3
f 211/11/6 212/10/6 216/37/6 215/38/6
f 215/38/7 216/37/7 214/4/7 213/21/7
f 213/21/10 214/4/10 210/173/10 209/174/10
f 211/68/4 215/38/4 213/21/4 209/22/4
f 216/37/9 212/103/9 210/3/9 214/4/9
f 217/73/3 218/74/3 220/10/3 219/11/3
f 219/11/6 220/10/6 224/37/6 223/38/6
f 223/38/7 224/37/7 222/4/7 221/21/7
f 221/21/10 222/4/10 218/173/10 217/174/10
f 219/68/4 223/38/4 221/21/4 217/22/4
f 224/37/9 220/103/9 218/3/9 222/4/9
o wheel
v 1.007628 0.035370 1.045670
v 0.759060 0.033295 0.918054
v 1.007199 0.087225 1.050795
v 0.758424 0.110169 0.925652
v 1.006813 0.137084 1.065938
v 0.757852 0.184083 0.948102
v 1.006484 0.183030 1.090517
v 0.757365 0.252199 0.984540
v 1.006226 0.223299 1.123588
v 0.756982 0.311897 1.033567
v 1.006048 0.256343 1.163880
v 0.756718 0.360884 1.093299
v 1.005956 0.280892 1.209844
v 0.756582 0.397277 1.161440
v 1.005955 0.296002 1.259714
v 0.756581 0.419677 1.235372
v 1.006045 0.301093 1.311574
v 0.756713 0.427225 1.312253
v 1.006221 0.295969 1.363430
v 0.756975 0.419629 1.389129
v 1.006478 0.280828 1.413290
v 0.757356 0.397182 1.463046
v 1.006805 0.256250 1.459238
v 0.757841 0.360746 1.531162
v 1.007190 0.223181 1.499507
v 0.758412 0.311722 1.590861
v 1.007619 0.182892 1.532551
v 0.759046 0.251993 1.639848
v 1.008073 0.136930 1.557100
v 0.759720 0.183855 1.676241
v 1.008537 0.087061 1.572209
v 0.760408 0.109926 1.698641
v 1.008992 0.035204 1.577299
v 0.761082 0.033048 1.706187
v 1.009421 -0.016651 1.572174
v 0.761718 -0.043826 1.698589
v 1.009807 -0.066510 1.557031
v 0.762290 -0.117740 1.676140
v 1.010135 -0.112456 1.532452
v 0.762777 -0.185856 1.639701
v 1.010394 -0.152725 1.499381
v 0.763160 -0.245554 1.590674
v 1.010572 -0.185769 1.459089
v 0.763425 -0.294540 1.530942
v 1.010663 -0.210318 1.413125
v 0.763560 -0.330934 1.462801
v 1.010664 -0.225428 1.363255
v 0.763562 -0.353334 1.388870
v 1.010575 -0.230519 1.311395
v 0.763429 -0.360882 1.311988
v 1.010398 -0.225395 1.259539
v 0.763167 -0.353286 1.235113
v 1.010141 -0.210254 1.209679
v 0.762786 -0.330839 1.161196
v 1.009814 -0.185676 1.163731
v 0.762301 -0.294403 1.093079
v 1.009429 -0.152607 1.123462
v 0.761730 -0.245379 1.033380
v 1.009001 -0.112318 1.090418
v 0.761096 -0.185650 0.984393
v 1.008546 -0.066356 1.065869
v 0.760422 -0.117512 0.948000
v 1.008083 -0.016487 1.050760
v 0.759735 -0.043583 0.925601
v 1.007299 0.035411 0.917418
v 1.006663 0.112284 0.925016
v 1.006091 0.186199 0.947465
v 1.005604 0.254314 0.983904
v 1.005221 0.314012 1.032931
v 1.004956 0.362999 1.092663
v 1.004821 0.399392 1.160804
v 1.004819 0.421793 1.234736
v 1.004952 0.429340 1.311617
v 1.005214 0.421745 1.388493
v 1.005594 0.399297 1.462409
v 1.006080 0.362862 1.530526
v 1.006650 0.313837 1.590225
v 1.007285 0.254108 1.639212
v 1.007959 0.185970 1.675605
v 1.008646 0.112042 1.698005
v 1.009321 0.035163 1.705551
v 1.009956 -0.041710 1.697953
v 1.010529 -0.115625 1.675504
v 1.011016 -0.183740 1.639065
v 1.011399 -0.243438 1.590038
v 1.011663 -0.292425 1.530306
v 1.011799 -0.328818 1.462165
v 1.011800 -0.351219 1.388233
v 1.011667 -0.358766 1.311352
v 1.011406 -0.351171 1.234476
v 1.011025 -0.328723 1.160560
v 1.010540 -0.292288 1.092443
v 1.009969 -0.243263 1.032744
v 1.009334 -0.183534 0.983757
v 1.008661 -0.115396 0.947364
v 1.007973 -0.041468 0.924964
v 0.964678 0.034975 1.134126
v 0.964392 0.069595 1.137547
v 0.964134 0.102883 1.147658
v 0.963915 0.133559 1.164068
v 0.963742 0.160444 1.186147
v 0.963623 0.182506 1.213048
v 0.963562 0.198895 1.243736
v 0.963562 0.208984 1.277031
v 0.963621 0.212383 1.311655
v 0.963739 0.208962 1.346276
v 0.963911 0.198853 1.379565
v 0.964129 0.182444 1.410241
v 0.964386 0.160365 1.437127
v 0.964672 0.133466 1.459189
v 0.964976 0.102780 1.475578
v 0.965285 0.069486 1.485666
v 0.965589 0.034863 1.489065
v 0.965875 0.000243 1.485643
v 0.966133 -0.033045 1.475533
v 0.966352 -0.063721 1.459123
v 0.966525 -0.090606 1.437043
v 0.966644 -0.112668 1.410142
v 0.966705 -0.129057 1.379455
v 0.966706 -0.139146 1.346159
v 0.966646 -0.142545 1.311536
v 0.966528 -0.139124 1.276914
v 0.966356 -0.129015 1.243625
v 0.966138 -0.112606 1.212949
v 0.965881 -0.090527 1.186063
v 0.965595 -0.063628 1.164002
v 0.965292 -0.032942 1.147612
v 0.964982 0.000352 1.137524
v 0.964451 0.035002 1.045780
v 0.964023 0.086857 1.050905
v 0.963637 0.136716 1.066048
v 0.963308 0.182662 1.090628
v 0.963050 0.222931 1.123699
v 0.962871 0.255975 1.163990
v 0.962780 0.280524 1.209955
v 0.962779 0.295634 1.259825
v 0.962869 0.300725 1.311684
v 0.963045 0.295601 1.363541
v 0.963302 0.280460 1.413401
v 0.963629 0.255882 1.459348
v 0.964014 0.222813 1.499618
v 0.964442 0.182524 1.532662
v 0.964897 0.136562 1.557210
v 0.965361 0.086693 1.572320
v 0.965816 0.034836 1.577410
v 0.966244 -0.017019 1.572285
v 0.966630 -0.066878 1.557142
v 0.966959 -0.112824 1.532563
v 0.967217 -0.153093 1.499492
v 0.967396 -0.186137 1.459200
v 0.967487 -0.210686 1.413236
v 0.967488 -0.225796 1.363366
v 0.967398 -0.230887 1.311506
v 0.967222 -0.225763 1.259650
v 0.966965 -0.210622 1.209790
v 0.966638 -0.186044 1.163842
v 0.966253 -0.152975 1.123573
v 0.965825 -0.112686 1.090529
v 0.965370 -0.066723 1.065980
v 0.964906 -0.016855 1.050870
v 0.990655 0.035196 1.134059
v 0.990368 0.069816 1.137481
v 0.990111 0.103104 1.147591
v 0.989891 0.133780 1.164001
v 0.989719 0.160666 1.186081
v 0.989600 0.182727 1.212981
v 0.989539 0.199117 1.243669
v 0.989538 0.209205 1.276964
v 0.989598 0.212604 1.311588
v 0.989716 0.209183 1.346210
v 0.989887 0.199074 1.379498
v 0.990106 0.182665 1.410175
v 0.990363 0.160587 1.437061
v 0.990649 0.133688 1.459122
v 0.990952 0.103001 1.475512
v 0.991262 0.069707 1.485600
v 0.991565 0.035085 1.488998
v 0.991852 0.000464 1.485576
v 0.992110 -0.032823 1.475466
v 0.992329 -0.063499 1.459056
v 0.992501 -0.090385 1.436976
v 0.992620 -0.112446 1.410076
v 0.992681 -0.128836 1.379388
v 0.992682 -0.138924 1.346093
v 0.992622 -0.142323 1.311469
v 0.992504 -0.138902 1.276848
v 0.992333 -0.128793 1.243559
v 0.992114 -0.112384 1.212882
v 0.991857 -0.090306 1.185997
v 0.991572 -0.063407 1.163935
v 0.991268 -0.032721 1.147545
v 0.990959 0.000574 1.137457
v 1.001359 0.036137 -1.397542
v 0.752791 0.034062 -1.525157
v 1.000930 0.087992 -1.392416
v 0.752155 0.110936 -1.517559
v 1.000544 0.137850 -1.377274
v 0.751583 0.184850 -1.495110
v 1.000215 0.183797 -1.352694
v 0.751096 0.252965 -1.458671
v 0.999957 0.224066 -1.319623
v 0.750713 0.312663 -1.409644
v 0.999779 0.257110 -1.279331
v 0.750448 0.361650 -1.349912
v 0.999687 0.281658 -1.233367
v 0.750313 0.398043 -1.281771
v 0.999686 0.296769 -1.183497
v 0.750312 0.420444 -1.207839
v 0.999776 0.301860 -1.131637
v 0.750444 0.427992 -1.130958
v 0.999952 0.296736 -1.079781
v 0.750706 0.420396 -1.054082
v 1.000209 0.281595 -1.029921
v 0.751087 0.397949 -0.980166
v 1.000536 0.257017 -0.983974
v 0.751572 0.361513 -0.912049
v 1.000921 0.223948 -0.943704
v 0.752143 0.312489 -0.852350
v 1.001349 0.183658 -0.910660
v 0.752777 0.252760 -0.803363
v 1.001804 0.137696 -0.886111
v 0.753451 0.184622 -0.766970
v 1.002268 0.087828 -0.871002
v 0.754139 0.110693 -0.744570
v 1.002723 0.035970 -0.865912
v 0.754813 0.033815 -0.737024
v 1.003152 -0.015884 -0.871037
v 0.755449 -0.043059 -0.744622
v 1.003538 -0.065743 -0.886180
v 0.756021 -0.116974 -0.767071
v 1.003866 -0.111690 -0.910759
v 0.756508 -0.185089 -0.803510
v 1.004125 -0.151959 -0.943830
v 0.756891 -0.244787 -0.852537
v 1.004303 -0.185002 -0.984122
v 0.757156 -0.293774 -0.912269
v 1.004394 -0.209551 -1.030086
v 0.757291 -0.330167 -0.980410
v 1.004395 -0.224661 -1.079956
v 0.757293 -0.352568 -1.054342
v 1.004306 -0.229752 -1.131816
v 0.757160 -0.360115 -1.131223
v 1.004129 -0.224629 -1.183672
v 0.756898 -0.352519 -1.208099
v 1.003872 -0.209487 -1.233532
v 0.756517 -0.330072 -1.282015
v 1.003545 -0.184910 -1.279480
v 0.756032 -0.293636 -1.350132
v 1.003160 -0.151841 -1.319749
v 0.755461 -0.244612 -1.409831
v 1.002732 -0.111551 -1.352793
v 0.754827 -0.184883 -1.458818
v 1.002277 -0.065589 -1.377342
v 0.754153 -0.116745 -1.495211
v 1.001814 -0.015721 -1.392451
v 0.753465 -0.042816 -1.517611
v 1.001030 0.036177 -1.525793
v 1.000394 0.113051 -1.518195
v 0.999822 0.186966 -1.495746
v 0.999335 0.255081 -1.459307
v 0.998951 0.314779 -1.410280
v 0.998687 0.363766 -1.350548
v 0.998552 0.400159 -1.282407
v 0.998550 0.422560 -1.208475
v 0.998683 0.430107 -1.131594
v 0.998945 0.422511 -1.054718
v 0.999326 0.400064 -0.980802
v 0.999811 0.363628 -0.912685
v 1.000381 0.314604 -0.852986
v 1.001016 0.254875 -0.803999
v 1.001690 0.186737 -0.767606
v 1.002377 0.112808 -0.745206
v 1.003052 0.035930 -0.737660
v 1.003688 -0.040944 -0.745258
v 1.004260 -0.114858 -0.767707
v 1.004747 -0.182973 -0.804146
v 1.005130 -0.242672 -0.853173
v 1.005394 -0.291658 -0.912905
v 1.005530 -0.328051 -0.981046
v 1.005531 -0.350452 -1.054978
v 1.005399 -0.358000 -1.131859
v 1.005137 -0.350404 -1.208735
v 1.004756 -0.327957 -1.282651
v 1.004271 -0.291521 -1.350768
v 1.003700 -0.242497 -1.410467
v 1.003065 -0.182768 -1.459454
v 1.002392 -0.114630 -1.495847
v 1.001704 -0.040701 -1.518247
v 0.958409 0.035741 -1.309086
v 0.958123 0.070362 -1.305664
v 0.957865 0.103650 -1.295554
v 0.957646 0.134326 -1.279143
v 0.957473 0.161211 -1.257064
v 0.957354 0.183272 -1.230163
v 0.957293 0.199662 -1.199476
v 0.957293 0.209750 -1.166180
v 0.957352 0.213149 -1.131556
v 0.957470 0.209729 -1.096935
v 0.957642 0.199620 -1.063646
v 0.957860 0.183210 -1.032969
v 0.958117 0.161132 -1.006084
v 0.958403 0.134233 -0.984022
v 0.958707 0.103547 -0.967633
v 0.959016 0.070253 -0.957545
v 0.959320 0.035630 -0.954146
v 0.959606 0.001010 -0.957568
v 0.959864 -0.032278 -0.967678
v 0.960083 -0.062954 -0.984089
v 0.960256 -0.089839 -1.006168
v 0.960375 -0.111901 -1.033069
v 0.960436 -0.128291 -1.063756
v 0.960436 -0.138379 -1.097052
v 0.960377 -0.141778 -1.131675
v 0.960259 -0.138357 -1.166297
v 0.960087 -0.128248 -1.199586
v 0.959869 -0.111839 -1.230263
v 0.959612 -0.089761 -1.257148
v 0.959326 -0.062861 -1.279210
v 0.959023 -0.032175 -1.295599
v 0.958713 0.001119 -1.305687
v 0.958182 0.035769 -1.397431
v 0.957754 0.087624 -1.392306
v 0.957368 0.137482 -1.377163
v 0.957039 0.183429 -1.352583
v 0.956781 0.223698 -1.319512
v 0.956602 0.256742 -1.279221
v 0.956511 0.281291 -1.233257
v 0.956510 0.296401 -1.183387
v 0.956600 0.301492 -1.131527
v 0.956776 0.296368 -1.079670
v 0.957033 0.281227 -1.029810
v 0.957360 0.256649 -0.983863
v 0.957745 0.223580 -0.943593
v 0.958173 0.183290 -0.910549
v 0.958628 0.137328 -0.886001
v 0.959092 0.087460 -0.870891
v 0.959547 0.035602 -0.865801
v 0.959975 -0.016252 -0.870926
v 0.960361 -0.066111 -0.886069
v 0.960690 -0.112058 -0.910649
v 0.960948 -0.152327 -0.943720
v 0.961127 -0.185370 -0.984011
v 0.961218 -0.209919 -1.029975
v 0.961219 -0.225029 -1.079845
v 0.961129 -0.230120 -1.131705
v 0.960953 -0.224997 -1.183562
v 0.960696 -0.209855 -1.233422
v 0.960369 -0.185278 -1.279369
v 0.959984 -0.152209 -1.319639
v 0.959556 -0.111919 -1.352683
v 0.959101 -0.065957 -1.377231
v 0.958637 -0.016089 -1.392341
v 0.984386 0.035963 -1.309152
v 0.984100 0.070583 -1.305730
v 0.983842 0.103871 -1.295620
v 0.983622 0.134547 -1.279210
v 0.983450 0.161432 -1.257130
v 0.983331 0.183494 -1.230230
v 0.983270 0.199883 -1.199542
v 0.983269 0.209972 -1.166247
v 0.983329 0.213371 -1.131623
v 0.983447 0.209950 -1.097002
v 0.983618 0.199841 -1.063713
v 0.983837 0.183432 -1.033036
v 0.984094 0.161353 -1.006150
v 0.984380 0.134454 -0.984089
v 0.984683 0.103768 -0.967699
v 0.984993 0.070474 -0.957611
v 0.985296 0.035851 -0.954213
v 0.985583 0.001231 -0.957635
v 0.985840 -0.032057 -0.967745
v 0.986060 -0.062733 -0.984155
v 0.986232 -0.089618 -1.006235
v 0.986351 -0.111679 -1.033135
v 0.986412 -0.128069 -1.063823
v 0.986413 -0.138157 -1.097118
v 0.986353 -0.141557 -1.131742
v 0.986235 -0.138136 -1.166363
v 0.986064 -0.128027 -1.199652
v 0.985845 -0.111618 -1.230329
v 0.985588 -0.089539 -1.257215
v 0.985303 -0.062640 -1.279276
v 0.984999 -0.031954 -1.295666
v 0.984689 0.001340 -1.305754
v -1.007628 0.035370 1.045670
v -0.759060 0.033295 0.918055
v -1.007199 0.087225 1.050795
v -0.758425 0.110169 0.925652
v -1.006813 0.137084 1.065938
v -0.757852 0.184083 0.948102
v -1.006484 0.183030 1.090517
v -0.757365 0.252199 0.984540
v -1.006226 0.223299 1.123588
v -0.756982 0.311897 1.033568
v -1.006048 0.256343 1.163880
v -0.756718 0.360884 1.093299
v -1.005956 0.280892 1.209844
v -0.756582 0.397277 1.161440
v -1.005955 0.296002 1.259714
v -0.756581 0.419677 1.235372
v -1.006045 0.301093 1.311574
v -0.756713 0.427225 1.312253
v -1.006221 0.295969 1.363430
v -0.756975 0.419629 1.389129
v -1.006478 0.280828 1.413290
v -0.757356 0.397182 1.463046
v -1.006806 0.256250 1.459238
v -0.757841 0.360746 1.531163
v -1.007191 0.223181 1.499507
v -0.758412 0.311722 1.590862
v -1.007619 0.182892 1.532551
v -0.759047 0.251993 1.639849
v -1.008073 0.136930 1.557100
v -0.759720 0.183855 1.676241
v -1.008537 0.087061 1.572209
v -0.760408 0.109926 1.698641
v -1.008992 0.035204 1.577300
v -0.761082 0.033048 1.706187
v -1.009421 -0.016651 1.572175
v -0.761718 -0.043826 1.698590
v -1.009807 -0.066510 1.557032
v -0.762290 -0.117740 1.676140
v -1.010135 -0.112456 1.532452
v -0.762777 -0.185856 1.639702
v -1.010394 -0.152725 1.499381
v -0.763160 -0.245554 1.590674
v -1.010572 -0.185769 1.459089
v -0.763425 -0.294541 1.530943
v -1.010663 -0.210318 1.413125
v -0.763560 -0.330934 1.462801
v -1.010664 -0.225428 1.363255
v -0.763562 -0.353334 1.388870
v -1.010575 -0.230519 1.311395
v -0.763429 -0.360882 1.311989
v -1.010398 -0.225395 1.259539
v -0.763167 -0.353286 1.235113
v -1.010141 -0.210254 1.209679
v -0.762786 -0.330839 1.161196
v -1.009814 -0.185676 1.163732
v -0.762301 -0.294403 1.093079
v -1.009429 -0.152607 1.123462
v -0.761731 -0.245379 1.033381
v -1.009001 -0.112318 1.090418
v -0.761096 -0.185650 0.984393
v -1.008546 -0.066356 1.065870
v -0.760422 -0.117512 0.948000
v -1.008083 -0.016487 1.050760
v -0.759735 -0.043583 0.925601
v -1.007299 0.035411 0.917418
v -1.006663 0.112284 0.925016
v -1.006091 0.186199 0.947465
v -1.005604 0.254314 0.983904
v -1.005221 0.314012 1.032931
v -1.004956 0.362999 1.092663
v -1.004821 0.399392 1.160804
v -1.004819 0.421793 1.234736
v -1.004952 0.429340 1.311617
v -1.005214 0.421745 1.388493
v -1.005595 0.399297 1.462409
v -1.006080 0.362862 1.530526
v -1.006651 0.313837 1.590225
v -1.007285 0.254108 1.639212
v -1.007959 0.185970 1.675605
v -1.008646 0.112042 1.698005
v -1.009321 0.035163 1.705551
v -1.009957 -0.041710 1.697953
v -1.010529 -0.115625 1.675504
v -1.011016 -0.183740 1.639065
v -1.011399 -0.243438 1.590038
v -1.011663 -0.292425 1.530306
v -1.011799 -0.328818 1.462165
v -1.011800 -0.351219 1.388233
v -1.011668 -0.358766 1.311352
v -1.011406 -0.351171 1.234476
v -1.011025 -0.328723 1.160560
v -1.010540 -0.292288 1.092443
v -1.009969 -0.243263 1.032744
v -1.009335 -0.183535 0.983757
v -1.008661 -0.115396 0.947364
v -1.007973 -0.041468 0.924964
v -0.964678 0.034975 1.134126
v -0.964392 0.069595 1.137547
v -0.964134 0.102883 1.147658
v -0.963915 0.133559 1.164068
v -0.963742 0.160444 1.186148
v -0.963623 0.182506 1.213048
v -0.963562 0.198895 1.243736
v -0.963562 0.208984 1.277031
v -0.963621 0.212383 1.311655
v -0.963739 0.208962 1.346276
v -0.963911 0.198853 1.379565
v -0.964129 0.182444 1.410242
v -0.964386 0.160365 1.437127
v -0.964672 0.133466 1.459189
v -0.964976 0.102780 1.475579
v -0.965285 0.069486 1.485667
v -0.965589 0.034863 1.489065
v -0.965875 0.000243 1.485643
v -0.966133 -0.033045 1.475533
v -0.966352 -0.063721 1.459123
v -0.966525 -0.090606 1.437043
v -0.966644 -0.112668 1.410143
v -0.966705 -0.129057 1.379455
v -0.966706 -0.139146 1.346159
v -0.966646 -0.142545 1.311536
v -0.966528 -0.139124 1.276914
v -0.966356 -0.129015 1.243626
v -0.966138 -0.112606 1.212949
v -0.965881 -0.090527 1.186063
v -0.965595 -0.063628 1.164002
v -0.965292 -0.032942 1.147612
v -0.964982 0.000352 1.137524
v -0.964452 0.035002 1.045780
v -0.964023 0.086857 1.050905
v -0.963637 0.136716 1.066049
v -0.963308 0.182662 1.090628
v -0.963050 0.222931 1.123699
v -0.962872 0.255975 1.163991
v -0.962780 0.280524 1.209955
v -0.962779 0.295634 1.259825
v -0.962869 0.300725 1.311685
v -0.963045 0.295602 1.363541
v -0.963302 0.280460 1.413401
v -0.963629 0.255882 1.459348
v -0.964014 0.222813 1.499618
v -0.964442 0.182524 1.532662
v -0.964897 0.136562 1.557210
v -0.965361 0.086693 1.572320
v -0.965816 0.034836 1.577410
v -0.966244 -0.017019 1.572285
v -0.966630 -0.066878 1.557142
v -0.966959 -0.112824 1.532563
v -0.967217 -0.153093 1.499492
v -0.967396 -0.186137 1.459200
v -0.967487 -0.210686 1.413236
v -0.967488 -0.225796 1.363366
v -0.967399 -0.230887 1.311506
v -0.967222 -0.225763 1.259650
v -0.966965 -0.210622 1.209790
v -0.966638 -0.186044 1.163842
v -0.966253 -0.152975 1.123573
v -0.965825 -0.112686 1.090529
v -0.965370 -0.066724 1.065980
v -0.964907 -0.016855 1.050871
v -0.990655 0.035196 1.134059
v -0.990369 0.069816 1.137481
v -0.990111 0.103104 1.147591
v -0.989892 0.133780 1.164001
v -0.989719 0.160666 1.186081
v -0.989600 0.182727 1.212981
v -0.989539 0.199117 1.243669
v -0.989538 0.209205 1.276965
v -0.989598 0.212604 1.311588
v -0.989716 0.209183 1.346210
v -0.989887 0.199074 1.379498
v -0.990106 0.182665 1.410175
v -0.990363 0.160587 1.437061
v -0.990649 0.133688 1.459122
v -0.990952 0.103001 1.475512
v -0.991262 0.069707 1.485600
v -0.991566 0.035085 1.488998
v -0.991852 0.000464 1.485577
v -0.992110 -0.032823 1.475466
v -0.992329 -0.063499 1.459056
v -0.992501 -0.090385 1.436977
v -0.992620 -0.112446 1.410076
v -0.992682 -0.128836 1.379388
v -0.992682 -0.138924 1.346093
v -0.992622 -0.142323 1.311469
v -0.992504 -0.138902 1.276848
v -0.992333 -0.128793 1.243559
v -0.992115 -0.112384 1.212883
v -0.991858 -0.090306 1.185997
v -0.991572 -0.063407 1.163935
v -0.991268 -0.032721 1.147545
v -0.990959 0.000574 1.137458
v -1.001359 0.036137 -1.397542
v -0.752791 0.034062 -1.525157
v -1.000930 0.087992 -1.392417
v -0.752155 0.110936 -1.517559
v -1.000544 0.137850 -1.377274
v -0.751583 0.184850 -1.495110
v -1.000215 0.183797 -1.352695
v -0.751096 0.252965 -1.458671
v -0.999957 0.224066 -1.319623
v -0.750713 0.312663 -1.409644
v -0.999779 0.257110 -1.279331
v -0.750448 0.361650 -1.349912
v -0.999687 0.281659 -1.233367
v -0.750313 0.398043 -1.281771
v -0.999686 0.296769 -1.183497
v -0.750312 0.420444 -1.207839
v -0.999776 0.301860 -1.131638
v -0.750445 0.427992 -1.130958
v -0.999952 0.296736 -1.079781
v -0.750706 0.420396 -1.054082
v -1.000209 0.281595 -1.029921
v -0.751087 0.397949 -0.980166
v -1.000537 0.257017 -0.983974
v -0.751572 0.361513 -0.912049
v -1.000921 0.223948 -0.943704
v -0.752143 0.312489 -0.852350
v -1.001350 0.183658 -0.910660
v -0.752778 0.252760 -0.803363
v -1.001804 0.137696 -0.886111
v -0.753451 0.184622 -0.766970
v -1.002268 0.087828 -0.871002
v -0.754139 0.110693 -0.744570
v -1.002723 0.035970 -0.865912
v -0.754813 0.033815 -0.737024
v -1.003152 -0.015884 -0.871037
v -0.755449 -0.043059 -0.744622
v -1.003538 -0.065743 -0.886180
v -0.756021 -0.116974 -0.767071
v -1.003866 -0.111690 -0.910759
v -0.756508 -0.185089 -0.803510
v -1.004125 -0.151959 -0.943831
v -0.756891 -0.244787 -0.852537
v -1.004303 -0.185002 -0.984122
v -0.757156 -0.293774 -0.912269
v -1.004394 -0.209551 -1.030086
v -0.757291 -0.330167 -0.980410
v -1.004395 -0.224661 -1.079957
v -0.757293 -0.352568 -1.054342
v -1.004306 -0.229752 -1.131816
v -0.757160 -0.360115 -1.131223
v -1.004129 -0.224629 -1.183672
v -0.756898 -0.352519 -1.208099
v -1.003872 -0.209487 -1.233532
v -0.756518 -0.330072 -1.282015
v -1.003545 -0.184910 -1.279480
v -0.756032 -0.293636 -1.350132
v -1.003160 -0.151841 -1.319750
v -0.755461 -0.244612 -1.409831
v -1.002732 -0.111551 -1.352794
v -0.754827 -0.184883 -1.458818
v -1.002277 -0.065589 -1.377342
v -0.754153 -0.116745 -1.495211
v -1.001814 -0.015721 -1.392452
v -0.753466 -0.042816 -1.517611
v -1.001030 0.036177 -1.525793
v -1.000394 0.113051 -1.518196
v -0.999822 0.186966 -1.495746
v -0.999335 0.255081 -1.459308
v -0.998952 0.314779 -1.410280
v -0.998687 0.363766 -1.350548
v -0.998552 0.400159 -1.282407
v -0.998550 0.422560 -1.208476
v -0.998683 0.430107 -1.131594
v -0.998945 0.422511 -1.054718
v -0.999326 0.400064 -0.980802
v -0.999811 0.363628 -0.912685
v -1.000382 0.314604 -0.852987
v -1.001016 0.254875 -0.803999
v -1.001690 0.186737 -0.767607
v -1.002378 0.112808 -0.745207
v -1.003052 0.035930 -0.737661
v -1.003688 -0.040944 -0.745258
v -1.004260 -0.114858 -0.767708
v -1.004747 -0.182973 -0.804146
v -1.005130 -0.242672 -0.853173
v -1.005394 -0.291658 -0.912905
v -1.005530 -0.328051 -0.981046
v -1.005531 -0.350452 -1.054978
v -1.005399 -0.358000 -1.131859
v -1.005137 -0.350404 -1.208735
v -1.004756 -0.327957 -1.282652
v -1.004271 -0.291521 -1.350768
v -1.003700 -0.242497 -1.410467
v -1.003066 -0.182768 -1.459455
v -1.002392 -0.114630 -1.495847
v -1.001704 -0.040701 -1.518247
v -0.958409 0.035741 -1.309086
v -0.958123 0.070362 -1.305664
v -0.957865 0.103650 -1.295554
v -0.957646 0.134326 -1.279144
v -0.957473 0.161211 -1.257064
v -0.957354 0.183272 -1.230164
v -0.957293 0.199662 -1.199476
v -0.957293 0.209750 -1.166180
v -0.957352 0.213149 -1.131557
v -0.957470 0.209729 -1.096935
v -0.957642 0.199620 -1.063647
v -0.957860 0.183210 -1.032970
v -0.958117 0.161132 -1.006084
v -0.958403 0.134233 -0.984022
v -0.958707 0.103547 -0.967633
v -0.959016 0.070253 -0.957545
v -0.959320 0.035630 -0.954147
v -0.959606 0.001010 -0.957569
v -0.959864 -0.032278 -0.967679
v -0.960083 -0.062954 -0.984089
v -0.960256 -0.089839 -1.006169
v -0.960375 -0.111901 -1.033069
v -0.960436 -0.128291 -1.063756
v -0.960437 -0.138379 -1.097052
v -0.960377 -0.141778 -1.131676
v -0.960259 -0.138357 -1.166297
v -0.960087 -0.128248 -1.199586
v -0.959869 -0.111839 -1.230263
v -0.959612 -0.089761 -1.257148
v -0.959326 -0.062861 -1.279210
v -0.959023 -0.032175 -1.295600
v -0.958713 0.001119 -1.305687
v -0.958183 0.035769 -1.397431
v -0.957754 0.087624 -1.392306
v -0.957368 0.137482 -1.377163
v -0.957039 0.183429 -1.352584
v -0.956781 0.223698 -1.319512
v -0.956602 0.256742 -1.279221
v -0.956511 0.281291 -1.233257
v -0.956510 0.296401 -1.183387
v -0.956600 0.301492 -1.131527
v -0.956776 0.296368 -1.079671
v -0.957033 0.281227 -1.029811
v -0.957360 0.256649 -0.983863
v -0.957745 0.223580 -0.943593
v -0.958173 0.183290 -0.910550
v -0.958628 0.137328 -0.886001
v -0.959092 0.087460 -0.870891
v -0.959547 0.035602 -0.865801
v -0.959975 -0.016252 -0.870926
v -0.960361 -0.066111 -0.886069
v -0.960690 -0.112058 -0.910649
v -0.960948 -0.152327 -0.943720
v -0.961127 -0.185370 -0.984011
v -0.961218 -0.209919 -1.029976
v -0.961219 -0.225029 -1.079846
v -0.961130 -0.230120 -1.131706
v -0.960953 -0.224997 -1.183562
v -0.960696 -0.209855 -1.233422
v -0.960369 -0.185278 -1.279369
v -0.959984 -0.152209 -1.319639
v -0.959556 -0.111919 -1.352683
v -0.959101 -0.065957 -1.377231
v -0.958638 -0.016089 -1.392341
v -0.984386 0.035963 -1.309152
v -0.984100 0.070583 -1.305731
v -0.983842 0.103871 -1.295620
v -0.983622 0.134547 -1.279210
v -0.983450 0.161432 -1.257131
v -0.983331 0.183494 -1.230230
v -0.983270 0.199883 -1.199543
v -0.983269 0.209972 -1.166247
v -0.983329 0.213371 -1.131624
v -0.983447 0.209950 -1.097002
v -0.983618 0.199841 -1.063713
v -0.983837 0.183432 -1.033036
v -0.984094 0.161353 -1.006151
v -0.984380 0.134454 -0.984089
v -0.984683 0.103768 -0.967700
v -0.984993 0.070474 -0.957612
v -0.985296 0.035851 -0.954213
v -0.985583 0.001231 -0.957635
v -0.985841 -0.032057 -0.967745
v -0.986060 -0.062733 -0.984155
v -0.986233 -0.089618 -1.006235
v -0.986351 -0.111679 -1.033135
v -0.986413 -0.128069 -1.063823
v -0.986413 -0.138157 -1.097119
v -0.986353 -0.141557 -1.131742
v -0.986235 -0.138136 -1.166363
v -0.986064 -0.128027 -1.199652
v -0.985846 -0.111618 -1.230329
v -0.985588 -0.089539 -1.257215
v -0.985303 -0.062640 -1.279276
v -0.984999 -0.031954 -1.295666
v -0.984689 0.001340 -1.305754
vn -0.0034 0.0983 -0.9951
vn -0.0049 0.2906 -0.9568
vn -0.0063 0.4717 -0.8818
vn -0.0074 0.6346 -0.7728
vn -0.0082 0.7732 -0.6341
vn -0.0087 0.8820 -0.4711
vn -0.0089 0.9570 -0.2900
vn -0.0087 0.9952 -0.0977
vn -0.0082 0.9951 0.0984
vn -0.0074 0.9568 0.2906
vn -0.0063 0.8817 0.4717
vn -0.0050 0.7728 0.6347
vn -0.0034 0.6341 0.7732
vn -0.0018 0.4711 0.8821
vn -0.0000 0.2900 0.9570
vn 0.0017 0.0977 0.9952
vn 0.0034 -0.0983 0.9951
vn 0.0049 -0.2906 0.9568
vn 0.0063 -0.4717 0.8818
vn 0.0074 -0.6346 0.7728
vn 0.0082 -0.7732 0.6341
vn 0.0087 -0.8820 0.4711
vn 0.0089 -0.9570 0.2900
vn 0.0087 -0.9952 0.0977
vn 0.0082 -0.9951 -0.0984
vn 0.0074 -0.9568 -0.2906
vn 0.0063 -0.8817 -0.4717
vn 0.0050 -0.7728 -0.6347
vn 0.0034 -0.6341 -0.7732
vn 0.0018 -0.4711 -0.8821
vn -1.0000 -0.0085 0.0026
vn -0.0000 -0.2900 -0.9570
vn -0.0017 -0.0977 -0.9952
vn 1.0000 0.0085 -0.0026
vn 0.0034 0.0983 -0.9951
vn 0.0049 0.2906 -0.9568
vn 0.0063 0.4717 -0.8818
vn 0.0074 0.6346 -0.7728
vn 0.0082 0.7732 -0.6341
vn 0.0087 0.8820 -0.4711
vn 0.0089 0.9570 -0.2900
vn 0.0087 0.9952 -0.0977
vn 0.0082 0.9951 0.0984
vn 0.0074 0.9568 0.2906
vn 0.0063 0.8817 0.4717
vn 0.0050 0.7728 0.6347
vn 0.0034 0.6341 0.7732
vn 0.0018 0.4711 0.8821
vn -0.0017 0.0977 0.9952
vn -0.0034 -0.0983 0.9951
vn -0.0049 -0.2906 0.9568
vn -0.0063 -0.4717 0.8818
vn -0.0074 -0.6346 0.7728
vn -0.0082 -0.7732 0.6341
vn -0.0087 -0.8820 0.4711
vn -0.0089 -0.9570 0.2900
vn -0.0087 -0.9952 0.0977
vn -0.0082 -0.9951 -0.0984
vn -0.0074 -0.9568 -0.2906
vn -0.0063 -0.8817 -0.4717
vn -0.0050 -0.7728 -0.6347
vn -0.0034 -0.6341 -0.7732
vn -0.0018 -0.4711 -0.8821
vn 1.0000 -0.0085 0.0026
vn 0.0017 -0.0977 -0.9952
vn -1.0000 0.0085 -0.0026
vn 0.0082 0.9951 0.0983
vn -0.0050 -0.7728 -0.6346
vn 0.0050 0.7728 0.6346
vn -0.0082 -0.9951 -0.0983
vt 1.000000 0.500000
vt 1.000000 1.000000
vt 0.968750 1.000000
vt 0.968750 0.500000
vt 0.937500 1.000000
vt 0.937500 0.500000
vt 0.906250 1.000000
vt 0.906250 0.500000
vt 0.875000 1.000000
vt 0.875000 0.500000
vt 0.843750 1.000000
vt 0.843750 0.500000
vt 0.812500 1.000000
vt 0.812500 0.500000
vt 0.781250 1.000000
vt 0.781250 0.500000
vt 0.750000 1.000000
vt 0.750000 0.500000
vt 0.718750 1.000000
vt 0.718750 0.500000
vt 0.687500 1.000000
vt 0.687500 0.500000
vt 0.656250 1.000000
vt 0.656250 0.500000
vt 0.625000 1.000000
vt 0.625000 0.500000
vt 0.593750 1.000000
vt 0.593750 0.500000
vt 0.562500 1.000000
vt 0.562500 0.500000
vt 0.531250 1.000000
vt 0.531250 0.500000
vt 0.500000 1.000000
vt 0.500000 0.500000
vt 0.468750 1.000000
vt 0.468750 0.500000
vt 0.437500 1.000000
vt 0.437500 0.500000
vt 0.406250 1.000000
vt 0.406250 0.500000
vt 0.375000 1.000000
vt 0.375000 0.500000
vt 0.343750 1.000000
vt 0.343750 0.500000
vt 0.312500 1.000000
vt 0.312500 0.500000
vt 0.281250 1.000000
vt 0.281250 0.500000
vt 0.250000 1.000000
vt 0.250000 0.500000
vt 0.218750 1.000000
vt 0.218750 0.500000
vt 0.187500 1.000000
vt 0.187500 0.500000
vt 0.156250 1.000000
vt 0.156250 0.500000
vt 0.125000 1.000000
vt 0.125000 0.500000
vt 0.093750 1.000000
vt 0.093750 0.500000
vt 0.062500 1.000000
vt 0.062500 0.500000
vt 0.296822 0.485388
vt 0.250000 0.490000
vt 0.203178 0.485388
vt 0.158156 0.471731
vt 0.116663 0.449553
vt 0.080294 0.419706
vt 0.050447 0.383337
vt 0.028269 0.341844
vt 0.014612 0.296822
vt 0.010000 0.250000
vt 0.014612 0.203178
vt 0.028269 0.158156
vt 0.050447 0.116663
vt 0.080294 0.080294
vt 0.116663 0.050447
vt 0.158156 0.028269
vt 0.203178 0.014612
vt 0.250000 0.010000
vt 0.296822 0.014612
vt 0.341844 0.028269
vt 0.383337 0.050447
vt 0.419706 0.080294
vt 0.449553 0.116663
vt 0.471731 0.158156
vt 0.485388 0.203178
vt 0.490000 0.250000
vt 0.485388 0.296822
vt 0.471731 0.341844
vt 0.449553 0.383337
vt 0.419706 0.419706
vt 0.383337 0.449553
vt 0.341844 0.471731
vt 0.031250 1.000000
vt 0.031250 0.500000
vt 0.000000 1.000000
vt 0.000000 0.500000
vt 0.615393 0.160058
vt 0.600433 0.188047
vt 0.781583 0.408780
vt 0.750000 0.411890
vt 0.750000 0.490000
vt 0.796822 0.485388
vt 0.811953 0.399567
vt 0.841844 0.471731
vt 0.839942 0.384607
vt 0.883337 0.449553
vt 0.864474 0.364474
vt 0.919706 0.419706
vt 0.884607 0.339942
vt 0.949553 0.383337
vt 0.899567 0.311953
vt 0.971731 0.341844
vt 0.908780 0.281583
vt 0.985388 0.296822
vt 0.911891 0.250000
vt 0.990000 0.250000
vt 0.908780 0.218417
vt 0.985388 0.203178
vt 0.899567 0.188047
vt 0.971731 0.158156
vt 0.884607 0.160058
vt 0.949553 0.116663
vt 0.864474 0.135526
vt 0.919706 0.080294
vt 0.839942 0.115393
vt 0.883337 0.050447
vt 0.811953 0.100433
vt 0.841844 0.028269
vt 0.781583 0.091220
vt 0.796822 0.014612
vt 0.750000 0.088110
vt 0.750000 0.010000
vt 0.718417 0.091220
vt 0.703178 0.014612
vt 0.688047 0.100433
vt 0.658156 0.028269
vt 0.660058 0.115393
vt 0.616663 0.050447
vt 0.635526 0.135526
vt 0.580294 0.080294
vt 0.550447 0.116663
vt 0.528269 0.158156
vt 0.591220 0.218417
vt 0.514612 0.203178
vt 0.588110 0.250000
vt 0.510000 0.250000
vt 0.591220 0.281583
vt 0.514612 0.296822
vt 0.600433 0.311953
vt 0.528269 0.341844
vt 0.615393 0.339942
vt 0.550447 0.383337
vt 0.635526 0.364474
vt 0.580294 0.419706
vt 0.660059 0.384607
vt 0.616663 0.449553
vt 0.688047 0.399567
vt 0.658156 0.471731
vt 0.718417 0.408780
vt 0.703178 0.485388
vt 0.791362 0.349858
vt 0.810049 0.339869
vt 0.771087 0.356008
vt 0.750000 0.358085
vt 0.826428 0.326428
vt 0.839870 0.310049
vt 0.849858 0.291362
vt 0.856008 0.271086
vt 0.858085 0.250000
vt 0.856008 0.228914
vt 0.849858 0.208638
vt 0.839870 0.189951
vt 0.826428 0.173572
vt 0.810049 0.160131
vt 0.791363 0.150142
vt 0.771087 0.143992
vt 0.750000 0.141915
vt 0.728913 0.143992
vt 0.708638 0.150142
vt 0.689951 0.160131
vt 0.673572 0.173572
vt 0.660131 0.189951
vt 0.650142 0.208638
vt 0.643992 0.228914
vt 0.641915 0.250000
vt 0.643992 0.271086
vt 0.650142 0.291362
vt 0.660131 0.310049
vt 0.673572 0.326428
vt 0.689951 0.339869
vt 0.708638 0.349858
vt 0.728914 0.356008
s 0
usemtl Material.002
f 289/185/42 226/186/42 228/187/42 290/188/42
f 290/188/43 228/187/43 230/189/43 291/190/43
f 291/190/44 230/189/44 232/191/44 292/192/44
f 292/192/45 232/191/45 234/193/45 293/194/45
f 293/194/46 234/193/46 236/195/46 294/196/46
f 294/196/47 236/195/47 238/197/47 295/198/47
f 295/198/48 238/197/48 240/199/48 296/200/48
f 296/200/49 240/199/49 242/201/49 297/202/49
f 297/202/50 242/201/50 244/203/50 298/204/50
f 298/204/51 244/203/51 246/205/51 299/206/51
f 299/206/52 246/205/52 248/207/52 300/208/52
f 300/208/53 248/207/53 250/209/53 301/210/53
f 301/210/54 250/209/54 252/211/54 302/212/54
f 302/212/55 252/211/55 254/213/55 303/214/55
f 303/214/56 254/213/56 256/215/56 304/216/56
f 304/216/57 256/215/57 258/217/57 305/218/57
f 305/218/58 258/217/58 260/219/58 306/220/58
f 306/220/59 260/219/59 262/221/59 307/222/59
f 307/222/60 262/221/60 264/223/60 308/224/60
f 308/224/61 264/223/61 266/225/61 309/226/61
f 309/226/62 266/225/62 268/227/62 310/228/62
f 310/228/63 268/227/63 270/229/63 311/230/63
f 311/230/64 270/229/64 272/231/64 312/232/64
f 312/232/65 272/231/65 274/233/65 313/234/65
f 313/234/66 274/233/66 276/235/66 314/236/66
f 314/236/67 276/235/67 278/237/67 315/238/67
f 315/238/68 278/237/68 280/239/68 316/240/68
f 316/240/69 280/239/69 282/241/69 317/242/69
f 317/242/70 282/241/70 284/243/70 318/244/70
f 318/244/71 284/243/71 286/245/71 319/246/71
f 228/247/72 226/248/72 288/249/72 286/250/72 284/251/72 282/252/72 280/253/72 278/254/72 276/255/72 274/256/72 272/257/72 270/258/72 268/259/72 266/260/72 264/261/72 262/262/72 260/263/72 258/264/72 256/265/72 254/266/72 252/267/72 250/268/72 248/269/72 246/270/72 244/271/72 242/272/72 240/273/72 238/274/72 236/275/72 234/276/72 232/277/72 230/278/72
f 319/246/73 286/245/73 288/279/73 320/280/73
f 320/280/74 288/279/74 226/281/74 289/282/74
f 267/283/47 269/284/47 375/284/47 374/283/47
f 227/285/75 225/286/75 289/287/75 290/288/75
f 229/289/75 227/285/75 290/288/75 291/290/75
f 231/291/75 229/289/75 291/290/75 292/292/75
f 233/293/75 231/291/75 292/292/75 293/294/75
f 235/295/75 233/293/75 293/294/75 294/296/75
f 237/297/75 235/295/75 294/296/75 295/298/75
f 239/299/75 237/297/75 295/298/75 296/300/75
f 241/301/75 239/299/75 296/300/75 297/302/75
f 243/303/75 241/301/75 297/302/75 298/304/75
f 245/305/75 243/303/75 298/304/75 299/306/75
f 247/307/75 245/305/75 299/306/75 300/308/75
f 249/309/75 247/307/75 300/308/75 301/310/75
f 251/311/75 249/309/75 301/310/75 302/312/75
f 253/313/75 251/311/75 302/312/75 303/314/75
f 255/315/75 253/313/75 303/314/75 304/316/75
f 257/317/75 255/315/75 304/316/75 305/318/75
f 259/319/75 257/317/75 305/318/75 306/320/75
f 261/321/75 259/319/75 306/320/75 307/322/75
f 263/323/75 261/321/75 307/322/75 308/324/75
f 265/325/75 263/323/75 308/324/75 309/326/75
f 267/283/75 265/325/75 309/326/75 310/327/75
f 269/284/75 267/283/75 310/327/75 311/328/75
f 271/329/75 269/284/75 311/328/75 312/330/75
f 273/331/75 271/329/75 312/330/75 313/332/75
f 275/333/75 273/331/75 313/332/75 314/334/75
f 277/335/75 275/333/75 314/334/75 315/336/75
f 279/337/75 277/335/75 315/336/75 316/338/75
f 281/339/75 279/337/75 316/338/75 317/340/75
f 283/341/75 281/339/75 317/340/75 318/342/75
f 285/343/75 283/341/75 318/342/75 319/344/75
f 287/345/75 285/343/75 319/344/75 320/346/75
f 225/286/75 287/345/75 320/346/75 289/287/75
f 323/347/44 324/348/44 388/348/44 387/347/44
f 241/301/66 243/303/66 362/303/66 361/301/66
f 269/284/48 271/329/48 376/329/48 375/284/48
f 243/303/67 245/305/67 363/305/67 362/303/67
f 271/329/49 273/331/49 377/331/49 376/329/49
f 245/305/68 247/307/68 364/307/68 363/305/68
f 273/331/50 275/333/50 378/333/50 377/331/50
f 247/307/69 249/309/69 365/309/69 364/307/69
f 275/333/51 277/335/51 379/335/51 378/333/51
f 249/309/70 251/311/70 366/311/70 365/309/70
f 277/335/52 279/337/52 380/337/52 379/335/52
f 251/311/71 253/313/71 367/313/71 366/311/71
f 225/286/58 227/285/58 354/285/58 353/286/58
f 279/337/53 281/339/53 381/339/53 380/337/53
f 253/313/73 255/315/73 368/315/73 367/313/73
f 227/285/59 229/289/59 355/289/59 354/285/59
f 281/339/54 283/341/54 382/341/54 381/339/54
f 255/315/74 257/317/74 369/317/74 368/315/74
f 229/289/60 231/291/60 356/291/60 355/289/60
f 283/341/55 285/343/55 383/343/55 382/341/55
f 257/317/42 259/319/42 370/319/42 369/317/42
f 231/291/61 233/293/61 357/293/61 356/291/61
f 285/343/56 287/345/56 384/345/56 383/343/56
f 259/319/43 261/321/43 371/321/43 370/319/43
f 233/293/62 235/295/62 358/295/62 357/293/62
f 287/345/57 225/286/57 353/286/57 384/345/57
f 261/321/44 263/323/44 372/323/44 371/321/44
f 235/295/63 237/297/63 359/297/63 358/295/63
f 263/323/45 265/325/45 373/325/45 372/323/45
f 237/297/64 239/299/64 360/299/64 359/297/64
f 265/325/46 267/283/46 374/283/46 373/325/46
f 239/299/65 241/301/65 361/301/65 360/299/65
f 322/349/75 321/350/75 353/286/75 354/285/75
f 323/347/75 322/349/75 354/285/75 355/289/75
f 324/348/75 323/347/75 355/289/75 356/291/75
f 325/351/75 324/348/75 356/291/75 357/293/75
f 326/352/75 325/351/75 357/293/75 358/295/75
f 327/353/75 326/352/75 358/295/75 359/297/75
f 328/354/75 327/353/75 359/297/75 360/299/75
f 329/355/75 328/354/75 360/299/75 361/301/75
f 330/356/75 329/355/75 361/301/75 362/303/75
f 331/357/75 330/356/75 362/303/75 363/305/75
f 332/358/75 331/357/75 363/305/75 364/307/75
f 333/359/75 332/358/75 364/307/75 365/309/75
f 334/360/75 333/359/75 365/309/75 366/311/75
f 335/361/75 334/360/75 366/311/75 367/313/75
f 336/362/75 335/361/75 367/313/75 368/315/75
f 337/363/75 336/362/75 368/315/75 369/317/75
f 338/364/75 337/363/75 369/317/75 370/319/75
f 339/365/75 338/364/75 370/319/75 371/321/75
f 340/366/75 339/365/75 371/321/75 372/323/75
f 341/367/75 340/366/75 372/323/75 373/325/75
f 342/368/75 341/367/75 373/325/75 374/283/75
f 343/369/75 342/368/75 374/283/75 375/284/75
f 344/370/75 343/369/75 375/284/75 376/329/75
f 345/371/75 344/370/75 376/329/75 377/331/75
f 346/372/75 345/371/75 377/331/75 378/333/75
f 347/373/75 346/372/75 378/333/75 379/335/75
f 348/374/75 347/373/75 379/335/75 380/337/75
f 349/375/75 348/374/75 380/337/75 381/339/75
f 350/376/75 349/375/75 381/339/75 382/341/75
f 351/377/75 350/376/75 382/341/75 383/343/75
f 352/378/75 351/377/75 383/343/75 384/345/75
f 321/350/75 352/378/75 384/345/75 353/286/75
f 385/350/75 386/349/75 387/347/75 388/348/75 389/351/75 390/352/75 391/353/75 392/354/75 393/355/75 394/356/75 395/357/75 396/358/75 397/359/75 398/360/75 399/361/75 400/362/75 401/363/75 402/364/75 403/365/75 404/366/75 405/367/75 406/368/75 407/369/75 408/370/75 409/371/75 410/372/75 411/373/75 412/374/75 413/375/75 414/376/75 415/377/75 416/378/75
f 350/376/71 351/377/71 415/377/71 414/376/71
f 337/363/58 338/364/58 402/364/58 401/363/58
f 324/348/45 325/351/45 389/351/45 388/348/45
f 351/377/73 352/378/73 416/378/73 415/377/73
f 338/364/59 339/365/59 403/365/59 402/364/59
f 325/351/46 326/352/46 390/352/46 389/351/46
f 352/378/74 321/350/74 385/350/74 416/378/74
f 339/365/60 340/366/60 404/366/60 403/365/60
f 326/352/47 327/353/47 391/353/47 390/352/47
f 340/366/61 341/367/61 405/367/61 404/366/61
f 327/353/48 328/354/48 392/354/48 391/353/48
f 341/367/62 342/368/62 406/368/62 405/367/62
f 328/354/49 329/355/49 393/355/49 392/354/49
f 342/368/63 343/369/63 407/369/63 406/368/63
f 329/355/50 330/356/50 394/356/50 393/355/50
f 343/369/64 344/370/64 408/370/64 407/369/64
f 330/356/51 331/357/51 395/357/51 394/356/51
f 344/370/65 345/371/65 409/371/65 408/370/65
f 331/357/52 332/358/52 396/358/52 395/357/52
f 345/371/66 346/372/66 410/372/66 409/371/66
f 332/358/53 333/359/53 397/359/53 396/358/53
f 346/372/67 347/373/67 411/373/67 410/372/67
f 333/359/54 334/360/54 398/360/54 397/359/54
f 347/373/68 348/374/68 412/374/68 411/373/68
f 334/360/55 335/361/55 399/361/55 398/360/55
f 321/350/42 322/349/42 386/349/42 385/350/42
f 348/374/69 349/375/69 413/375/69 412/374/69
f 335/361/56 336/362/56 400/362/56 399/361/56
f 322/349/43 323/347/43 387/347/43 386/349/43
f 349/375/70 350/376/70 414/376/70 413/375/70
f 336/362/57 337/363/57 401/363/57 400/362/57
f 481/185/42 418/186/42 420/187/42 482/188/42
f 482/188/43 420/187/43 422/189/43 483/190/43
f 483/190/44 422/189/44 424/191/44 484/192/44
f 484/192/45 424/191/45 426/193/45 485/194/45
f 485/194/46 426/193/46 428/195/46 486/196/46
f 486/196/47 428/195/47 430/197/47 487/198/47
f 487/198/48 430/197/48 432/199/48 488/200/48
f 488/200/49 432/199/49 434/201/49 489/202/49
f 489/202/50 434/201/50 436/203/50 490/204/50
f 490/204/51 436/203/51 438/205/51 491/206/51
f 491/206/52 438/205/52 440/207/52 492/208/52
f 492/208/53 440/207/53 442/209/53 493/210/53
f 493/210/54 442/209/54 444/211/54 494/212/54
f 494/212/55 444/211/55 446/213/55 495/214/55
f 495/214/56 446/213/56 448/215/56 496/216/56
f 496/216/57 448/215/57 450/217/57 497/218/57
f 497/218/58 450/217/58 452/219/58 498/220/58
f 498/220/59 452/219/59 454/221/59 499/222/59
f 499/222/60 454/221/60 456/223/60 500/224/60
f 500/224/61 456/223/61 458/225/61 501/226/61
f 501/226/62 458/225/62 460/227/62 502/228/62
f 502/228/63 460/227/63 462/229/63 503/230/63
f 503/230/64 462/229/64 464/231/64 504/232/64
f 504/232/65 464/231/65 466/233/65 505/234/65
f 505/234/66 466/233/66 468/235/66 506/236/66
f 506/236/67 468/235/67 470/237/67 507/238/67
f 507/238/68 470/237/68 472/239/68 508/240/68
f 508/240/69 472/239/69 474/241/69 509/242/69
f 509/242/70 474/241/70 476/243/70 510/244/70
f 510/244/71 476/243/71 478/245/71 511/246/71
f 420/247/72 418/248/72 480/249/72 478/250/72 476/251/72 474/252/72 472/253/72 470/254/72 468/255/72 466/256/72 464/257/72 462/258/72 460/259/72 458/260/72 456/261/72 454/262/72 452/263/72 450/264/72 448/265/72 446/266/72 444/267/72 442/268/72 440/269/72 438/270/72 436/271/72 434/272/72 432/273/72 430/274/72 428/275/72 426/276/72 424/277/72 422/278/72
f 511/246/73 478/245/73 480/279/73 512/280/73
f 512/280/74 480/279/74 418/281/74 481/282/74
f 459/283/47 461/284/47 567/284/47 566/283/47
f 419/285/75 417/286/75 481/287/75 482/288/75
f 421/289/75 419/285/75 482/288/75 483/290/75
f 423/291/75 421/289/75 483/290/75 484/292/75
f 425/293/75 423/291/75 484/292/75 485/294/75
f 427/295/75 425/293/75 485/294/75 486/296/75
f 429/297/75 427/295/75 486/296/75 487/298/75
f 431/299/75 429/297/75 487/298/75 488/300/75
f 433/301/75 431/299/75 488/300/75 489/302/75
f 435/303/75 433/301/75 489/302/75 490/304/75
f 437/305/75 435/303/75 490/304/75 491/306/75
f 439/307/75 437/305/75 491/306/75 492/308/75
f 441/309/75 439/307/75 492/308/75 493/310/75
f 443/311/75 441/309/75 493/310/75 494/312/75
f 445/313/75 443/311/75 494/312/75 495/314/75
f 447/315/75 445/313/75 495/314/75 496/316/75
f 449/317/75 447/315/75 496/316/75 497/318/75
f 451/319/75 449/317/75 497/318/75 498/320/75
f 453/321/75 451/319/75 498/320/75 499/322/75
f 455/323/75 453/321/75 499/322/75 500/324/75
f 457/325/75 455/323/75 500/324/75 501/326/75
f 459/283/75 457/325/75 501/326/75 502/327/75
f 461/284/75 459/283/75 502/327/75 503/328/75
f 463/329/75 461/284/75 503/328/75 504/330/75
f 465/331/75 463/329/75 504/330/75 505/332/75
f 467/333/75 465/331/75 505/332/75 506/334/75
f 469/335/75 467/333/75 506/334/75 507/336/75
f 471/337/75 469/335/75 507/336/75 508/338/75
f 473/339/75 471/337/75 508/338/75 509/340/75
f 475/341/75 473/339/75 509/340/75 510/342/75
f 477/343/75 475/341/75 510/342/75 511/344/75
f 479/345/75 477/343/75 511/344/75 512/346/75
f 417/286/75 479/345/75 512/346/75 481/287/75
f 515/347/44 516/348/44 580/348/44 579/347/44
f 433/301/66 435/303/66 554/303/66 553/301/66
f 461/284/48 463/329/48 568/329/48 567/284/48
f 435/303/67 437/305/67 555/305/67 554/303/67
f 463/329/49 465/331/49 569/331/49 568/329/49
f 437/305/68 439/307/68 556/307/68 555/305/68
f 465/331/50 467/333/50 570/333/50 569/331/50
f 439/307/69 441/309/69 557/309/69 556/307/69
f 467/333/51 469/335/51 571/335/51 570/333/51
f 441/309/70 443/311/70 558/311/70 557/309/70
f 469/335/52 471/337/52 572/337/52 571/335/52
f 443/311/71 445/313/71 559/313/71 558/311/71
f 417/286/58 419/285/58 546/285/58 545/286/58
f 471/337/53 473/339/53 573/339/53 572/337/53
f 445/313/73 447/315/73 560/315/73 559/313/73
f 419/285/59 421/289/59 547/289/59 546/285/59
f 473/339/54 475/341/54 574/341/54 573/339/54
f 447/315/74 449/317/74 561/317/74 560/315/74
f 421/289/60 423/291/60 548/291/60 547/289/60
f 475/341/55 477/343/55 575/343/55 574/341/55
f 449/317/42 451/319/42 562/319/42 561/317/42
f 423/291/61 425/293/61 549/293/61 548/291/61
f 477/343/56 479/345/56 576/345/56 575/343/56
f 451/319/43 453/321/43 563/321/43 562/319/43
f 425/293/62 427/295/62 550/295/62 549/293/62
f 479/345/57 417/286/57 545/286/57 576/345/57
f 453/321/44 455/323/44 564/323/44 563/321/44
f 427/295/63 429/297/63 551/297/63 550/295/63
f 455/323/45 457/325/45 565/325/45 564/323/45
f 429/297/64 431/299/64 552/299/64 551/297/64
f 457/325/46 459/283/46 566/283/46 565/325/46
f 431/299/65 433/301/65 553/301/65 552/299/65
f 514/349/75 513/350/75 545/286/75 546/285/75
f 515/347/75 514/349/75 546/285/75 547/289/75
f 516/348/75 515/347/75 547/289/75 548/291/75
f 517/351/75 516/348/75 548/291/75 549/293/75
f 518/352/75 517/351/75 549/293/75 550/295/75
f 519/353/75 518/352/75 550/295/75 551/297/75
f 520/354/75 519/353/75 551/297/75 552/299/75
f 521/355/75 520/354/75 552/299/75 553/301/75
f 522/356/75 521/355/75 553/301/75 554/303/75
f 523/357/75 522/356/75 554/303/75 555/305/75
f 524/358/75 523/357/75 555/305/75 556/307/75
f 525/359/75 524/358/75 556/307/75 557/309/75
f 526/360/75 525/359/75 557/309/75 558/311/75
f 527/361/75 526/360/75 558/311/75 559/313/75
f 528/362/75 527/361/75 559/313/75 560/315/75
f 529/363/75 528/362/75 560/315/75 561/317/75
f 530/364/75 529/363/75 561/317/75 562/319/75
f 531/365/75 530/364/75 562/319/75 563/321/75
f 532/366/75 531/365/75 563/321/75 564/323/75
f 533/367/75 532/366/75 564/323/75 565/325/75
f 534/368/75 533/367/75 565/325/75 566/283/75
f 535/369/75 534/368/75 566/283/75 567/284/75
f 536/370/75 535/369/75 567/284/75 568/329/75
f 537/371/75 536/370/75 568/329/75 569/331/75
f 538/372/75 537/371/75 569/331/75 570/333/75
f 539/373/75 538/372/75 570/333/75 571/335/75
f 540/374/75 539/373/75 571/335/75 572/337/75
f 541/375/75 540/374/75 572/337/75 573/339/75
f 542/376/75 541/375/75 573/339/75 574/341/75
f 543/377/75 542/376/75 574/341/75 575/343/75
f 544/378/75 543/377/75 575/343/75 576/345/75
f 513/350/75 544/378/75 576/345/75 545/286/75
f 577/350/75 578/349/75 579/347/75 580/348/75 581/351/75 582/352/75 583/353/75 584/354/75 585/355/75 586/356/75 587/357/75 588/358/75 589/359/75 590/360/75 591/361/75 592/362/75 593/363/75 594/364/75 595/365/75 596/366/75 597/367/75 598/368/75 599/369/75 600/370/75 601/371/75 602/372/75 603/373/75 604/374/75 605/375/75 606/376/75 607/377/75 608/378/75
f 542/376/71 543/377/71 607/377/71 606/376/71
f 529/363/58 530/364/58 594/364/58 593/363/58
f 516/348/45 517/351/45 581/351/45 580/348/45
f 543/377/73 544/378/73 608/378/73 607/377/73
f 530/364/59 531/365/59 595/365/59 594/364/59
f 517/351/46 518/352/46 582/352/46 581/351/46
f 544/378/74 513/350/74 577/350/74 608/378/74
f 531/365/60 532/366/60 596/366/60 595/365/60
f 518/352/47 519/353/47 583/353/47 582/352/47
f 532/366/61 533/367/61 597/367/61 596/366/61
f 519/353/48 520/354/48 584/354/48 583/353/48
f 533/367/62 534/368/62 598/368/62 597/367/62
f 520/354/49 521/355/49 585/355/49 584/354/49
f 534/368/63 535/369/63 599/369/63 598/368/63
f 521/355/50 522/356/50 586/356/50 585/355/50
f 535/369/64 536/370/64 600/370/64 599/369/64
f 522/356/51 523/357/51 587/357/51 586/356/51
f 536/370/65 537/371/65 601/371/65 600/370/65
f 523/357/52 524/358/52 588/358/52 587/357/52
f 537/371/66 538/372/66 602/372/66 601/371/66
f 524/358/53 525/359/53 589/359/53 588/358/53
f 538/372/67 539/373/67 603/373/67 602/372/67
f 525/359/54 526/360/54 590/360/54 589/359/54
f 539/373/68 540/374/68 604/374/68 603/373/68
f 526/360/55 527/361/55 591/361/55 590/360/55
f 513/350/42 514/349/42 578/349/42 577/350/42
f 540/374/69 541/375/69 605/375/69 604/374/69
f 527/361/56 528/362/56 592/362/56 591/361/56
f 514/349/43 515/347/43 579/347/43 578/349/43
f 541/375/70 542/376/70 606/376/70 605/375/70
f 528/362/57 529/363/57 593/363/57 592/362/57
f 673/185/76 674/188/76 612/187/76 610/186/76
f 674/188/77 675/190/77 614/189/77 612/187/77
f 675/190/78 676/192/78 616/191/78 614/189/78
f 676/192/79 677/194/79 618/193/79 616/191/79
f 677/194/80 678/196/80 620/195/80 618/193/80
f 678/196/81 679/198/81 622/197/81 620/195/81
f 679/198/82 680/200/82 624/199/82 622/197/82
f 680/200/83 681/202/83 626/201/83 624/199/83
f 681/202/84 682/204/84 628/203/84 626/201/84
f 682/204/85 683/206/85 630/205/85 628/203/85
f 683/206/86 684/208/86 632/207/86 630/205/86
f 684/208/87 685/210/87 634/209/87 632/207/87
f 685/210/88 686/212/88 636/211/88 634/209/88
f 686/212/89 687/214/89 638/213/89 636/211/89
f 687/214/56 688/216/56 640/215/56 638/213/56
f 688/216/90 689/218/90 642/217/90 640/215/90
f 689/218/91 690/220/91 644/219/91 642/217/91
f 690/220/92 691/222/92 646/221/92 644/219/92
f 691/222/93 692/224/93 648/223/93 646/221/93
f 692/224/94 693/226/94 650/225/94 648/223/94
f 693/226/95 694/228/95 652/227/95 650/225/95
f 694/228/96 695/230/96 654/229/96 652/227/96
f 695/230/97 696/232/97 656/231/97 654/229/97
f 696/232/98 697/234/98 658/233/98 656/231/98
f 697/234/99 698/236/99 660/235/99 658/233/99
f 698/236/100 699/238/100 662/237/100 660/235/100
f 699/238/101 700/240/101 664/239/101 662/237/101
f 700/240/102 701/242/102 666/241/102 664/239/102
f 701/242/103 702/244/103 668/243/103 666/241/103
f 702/244/104 703/246/104 670/245/104 668/243/104
f 612/247/105 614/278/105 616/277/105 618/276/105 620/275/105 622/274/105 624/273/105 626/272/105 628/271/105 630/270/105 632/269/105 634/268/105 636/267/105 638/266/105 640/265/105 642/264/105 644/263/105 646/262/105 648/261/105 650/260/105 652/259/105 654/258/105 656/257/105 658/256/105 660/255/105 662/254/105 664/253/105 666/252/105 668/251/105 670/250/105 672/249/105 610/248/105
f 703/246/73 704/280/73 672/279/73 670/245/73
f 704/280/106 673/282/106 610/281/106 672/279/106
f 651/283/81 758/283/81 759/284/81 653/284/81
f 611/285/107 674/288/107 673/287/107 609/286/107
f 613/289/107 675/290/107 674/288/107 611/285/107
f 615/291/107 676/292/107 675/290/107 613/289/107
f 617/293/107 677/294/107 676/292/107 615/291/107
f 619/295/107 678/296/107 677/294/107 617/293/107
f 621/297/107 679/298/107 678/296/107 619/295/107
f 623/299/107 680/300/107 679/298/107 621/297/107
f 625/301/107 681/302/107 680/300/107 623/299/107
f 627/303/107 682/304/107 681/302/107 625/301/107
f 629/305/107 683/306/107 682/304/107 627/303/107
f 631/307/107 684/308/107 683/306/107 629/305/107
f 633/309/107 685/310/107 684/308/107 631/307/107
f 635/311/107 686/312/107 685/310/107 633/309/107
f 637/313/107 687/314/107 686/312/107 635/311/107
f 639/315/107 688/316/107 687/314/107 637/313/107
f 641/317/107 689/318/107 688/316/107 639/315/107
f 643/319/107 690/320/107 689/318/107 641/317/107
f 645/321/107 691/322/107 690/320/107 643/319/107
f 647/323/107 692/324/107 691/322/107 645/321/107
f 649/325/107 693/326/107 692/324/107 647/323/107
f 651/283/107 694/327/107 693/326/107 649/325/107
f 653/284/107 695/328/107 694/327/107 651/283/107
f 655/329/107 696/330/107 695/328/107 653/284/107
f 657/331/107 697/332/107 696/330/107 655/329/107
f 659/333/107 698/334/107 697/332/107 657/331/107
f 661/335/107 699/336/107 698/334/107 659/333/107
f 663/337/107 700/338/107 699/336/107 661/335/107
f 665/339/107 701/340/107 700/338/107 663/337/107
f 667/341/107 702/342/107 701/340/107 665/339/107
f 669/343/107 703/344/107 702/342/107 667/341/107
f 671/345/107 704/346/107 703/344/107 669/343/107
f 609/286/107 673/287/107 704/346/107 671/345/107
f 707/347/78 771/347/78 772/348/78 708/348/78
f 625/301/99 745/301/99 746/303/99 627/303/99
f 653/284/82 759/284/82 760/329/82 655/329/82
f 627/303/100 746/303/100 747/305/100 629/305/100
f 655/329/83 760/329/83 761/331/83 657/331/83
f 629/305/101 747/305/101 748/307/101 631/307/101
f 657/331/108 761/331/108 762/333/108 659/333/108
f 631/307/102 748/307/102 749/309/102 633/309/102
f 659/333/85 762/333/85 763/335/85 661/335/85
f 633/309/103 749/309/103 750/311/103 635/311/103
f 661/335/86 763/335/86 764/337/86 663/337/86
f 635/311/104 750/311/104 751/313/104 637/313/104
f 609/286/91 737/286/91 738/285/91 611/285/91
f 663/337/87 764/337/87 765/339/87 665/339/87
f 637/313/73 751/313/73 752/315/73 639/315/73
f 611/285/92 738/285/92 739/289/92 613/289/92
f 665/339/88 765/339/88 766/341/88 667/341/88
f 639/315/106 752/315/106 753/317/106 641/317/106
f 613/289/93 739/289/93 740/291/93 615/291/93
f 667/341/89 766/341/89 767/343/89 669/343/89
f 641/317/76 753/317/76 754/319/76 643/319/76
f 615/291/94 740/291/94 741/293/94 617/293/94
f 669/343/56 767/343/56 768/345/56 671/345/56
f 643/319/77 754/319/77 755/321/77 645/321/77
f 617/293/95 741/293/95 742/295/95 619/295/95
f 671/345/90 768/345/90 737/286/90 609/286/90
f 645/321/78 755/321/78 756/323/78 647/323/78
f 619/295/96 742/295/96 743/297/96 621/297/96
f 647/323/79 756/323/79 757/325/79 649/325/79
f 621/297/97 743/297/97 744/299/97 623/299/97
f 649/325/80 757/325/80 758/283/80 651/283/80
f 623/299/98 744/299/98 745/301/98 625/301/98
f 706/349/107 738/285/107 737/286/107 705/350/107
f 707/347/107 739/289/107 738/285/107 706/349/107
f 708/348/107 740/291/107 739/289/107 707/347/107
f 709/351/107 741/293/107 740/291/107 708/348/107
f 710/352/107 742/295/107 741/293/107 709/351/107
f 711/353/107 743/297/107 742/295/107 710/352/107
f 712/354/107 744/299/107 743/297/107 711/353/107
f 713/355/107 745/301/107 744/299/107 712/354/107
f 714/356/107 746/303/107 745/301/107 713/355/107
f 715/357/107 747/305/107 746/303/107 714/356/107
f 716/358/107 748/307/107 747/305/107 715/357/107
f 717/359/107 749/309/107 748/307/107 716/358/107
f 718/360/107 750/311/107 749/309/107 717/359/107
f 719/361/107 751/313/107 750/311/107 718/360/107
f 720/362/107 752/315/107 751/313/107 719/361/107
f 721/363/107 753/317/107 752/315/107 720/362/107
f 722/364/107 754/319/107 753/317/107 721/363/107
f 723/365/107 755/321/107 754/319/107 722/364/107
f 724/366/107 756/323/107 755/321/107 723/365/107
f 725/367/107 757/325/107 756/323/107 724/366/107
f 726/368/107 758/283/107 757/325/107 725/367/107
f 727/369/107 759/284/107 758/283/107 726/368/107
f 728/370/107 760/329/107 759/284/107 727/369/107
f 729/371/107 761/331/107 760/329/107 728/370/107
f 730/372/107 762/333/107 761/331/107 729/371/107
f 731/373/107 763/335/107 762/333/107 730/372/107
f 732/374/107 764/337/107 763/335/107 731/373/107
f 733/375/107 765/339/107 764/337/107 732/374/107
f 734/376/107 766/341/107 765/339/107 733/375/107
f 735/377/107 767/343/107 766/341/107 734/376/107
f 736/378/107 768/345/107 767/343/107 735/377/107
f 705/350/107 737/286/107 768/345/107 736/378/107
f 769/350/107 800/378/107 799/377/107 798/376/107 797/375/107 796/374/107 795/373/107 794/372/107 793/371/107 792/370/107 791/369/107 790/368/107 789/367/107 788/366/107 787/365/107 786/364/107 785/363/107 784/362/107 783/361/107 782/360/107 781/359/107 780/358/107 779/357/107 778/356/107 777/355/107 776/354/107 775/353/107 774/352/107 773/351/107 772/348/107 771/347/107 770/349/107
f 734/376/104 798/376/104 799/377/104 735/377/104
f 721/363/91 785/363/91 786/364/91 722/364/91
f 708/348/79 772/348/79 773/351/79 709/351/79
f 735/377/73 799/377/73 800/378/73 736/378/73
f 722/364/92 786/364/92 787/365/92 723/365/92
f 709/351/80 773/351/80 774/352/80 710/352/80
f 736/378/106 800/378/106 769/350/106 705/350/106
f 723/365/93 787/365/93 788/366/93 724/366/93
f 710/352/81 774/352/81 775/353/81 711/353/81
f 724/366/94 788/366/94 789/367/94 725/367/94
f 711/353/82 775/353/82 776/354/82 712/354/82
f 725/367/95 789/367/95 790/368/95 726/368/95
f 712/354/83 776/354/83 777/355/83 713/355/83
f 726/368/96 790/368/96 791/369/96 727/369/96
f 713/355/84 777/355/84 778/356/84 714/356/84
f 727/369/97 791/369/97 792/370/97 728/370/97
f 714/356/85 778/356/85 779/357/85 715/357/85
f 728/370/98 792/370/98 793/371/98 729/371/98
f 715/357/86 779/357/86 780/358/86 716/358/86
f 729/371/99 793/371/99 794/372/99 730/372/99
f 716/358/87 780/358/87 781/359/87 717/359/87
f 730/372/100 794/372/100 795/373/100 731/373/100
f 717/359/88 781/359/88 782/360/88 718/360/88
f 731/373/101 795/373/101 796/374/101 732/374/101
f 718/360/89 782/360/89 783/361/89 719/361/89
f 705/350/76 769/350/76 770/349/76 706/349/76
f 732/374/102 796/374/102 797/375/102 733/375/102
f 719/361/56 783/361/56 784/362/56 720/362/56
f 706/349/77 770/349/77 771/347/77 707/347/77
f 733/375/103 797/375/103 798/376/103 734/376/103
f 720/362/90 784/362/90 785/363/90 721/363/90
f 865/185/76 866/188/76 804/187/76 802/186/76
f 866/188/77 867/190/77 806/189/77 804/187/77
f 867/190/78 868/192/78 808/191/78 806/189/78
f 868/192/79 869/194/79 810/193/79 808/191/79
f 869/194/80 870/196/80 812/195/80 810/193/80
f 870/196/81 871/198/81 814/197/81 812/195/81
f 871/198/82 872/200/82 816/199/82 814/197/82
f 872/200/83 873/202/83 818/201/83 816/199/83
f 873/202/84 874/204/84 820/203/84 818/201/84
f 874/204/85 875/206/85 822/205/85 820/203/85
f 875/206/86 876/208/86 824/207/86 822/205/86
f 876/208/87 877/210/87 826/209/87 824/207/87
f 877/210/88 878/212/88 828/211/88 826/209/88
f 878/212/89 879/214/89 830/213/89 828/211/89
f 879/214/56 880/216/56 832/215/56 830/213/56
f 880/216/90 881/218/90 834/217/90 832/215/90
f 881/218/91 882/220/91 836/219/91 834/217/91
f 882/220/92 883/222/92 838/221/92 836/219/92
f 883/222/93 884/224/93 840/223/93 838/221/93
f 884/224/94 885/226/94 842/225/94 840/223/94
f 885/226/95 886/228/95 844/227/95 842/225/95
f 886/228/96 887/230/96 846/229/96 844/227/96
f 887/230/97 888/232/97 848/231/97 846/229/97
f 888/232/98 889/234/98 850/233/98 848/231/98
f 889/234/99 890/236/99 852/235/99 850/233/99
f 890/236/100 891/238/100 854/237/100 852/235/100
f 891/238/101 892/240/101 856/239/101 854/237/101
f 892/240/102 893/242/102 858/241/102 856/239/102
f 893/242/103 894/244/103 860/243/103 858/241/103
f 894/244/104 895/246/104 862/245/104 860/243/104
f 804/247/105 806/278/105 808/277/105 810/276/105 812/275/105 814/274/105 816/273/105 818/272/105 820/271/105 822/270/105 824/269/105 826/268/105 828/267/105 830/266/105 832/265/105 834/264/105 836/263/105 838/262/105 840/261/105 842/260/105 844/259/105 846/258/105 848/257/105 850/256/105 852/255/105 854/254/105 856/253/105 858/252/105 860/251/105 862/250/105 864/249/105 802/248/105
f 895/246/73 896/280/73 864/279/73 862/245/73
f 896/280/106 865/282/106 802/281/106 864/279/106
f 843/283/81 950/283/81 951/284/81 845/284/81
f 803/285/107 866/288/107 865/287/107 801/286/107
f 805/289/107 867/290/107 866/288/107 803/285/107
f 807/291/107 868/292/107 867/290/107 805/289/107
f 809/293/107 869/294/107 868/292/107 807/291/107
f 811/295/107 870/296/107 869/294/107 809/293/107
f 813/297/107 871/298/107 870/296/107 811/295/107
f 815/299/107 872/300/107 871/298/107 813/297/107
f 817/301/107 873/302/107 872/300/107 815/299/107
f 819/303/107 874/304/107 873/302/107 817/301/107
f 821/305/107 875/306/107 874/304/107 819/303/107
f 823/307/107 876/308/107 875/306/107 821/305/107
f 825/309/107 877/310/107 876/308/107 823/307/107
f 827/311/107 878/312/107 877/310/107 825/309/107
f 829/313/107 879/314/107 878/312/107 827/311/107
f 831/315/107 880/316/107 879/314/107 829/313/107
f 833/317/107 881/318/107 880/316/107 831/315/107
f 835/319/107 882/320/107 881/318/107 833/317/107
f 837/321/107 883/322/107 882/320/107 835/319/107
f 839/323/107 884/324/107 883/322/107 837/321/107
f 841/325/107 885/326/107 884/324/107 839/323/107
f 843/283/107 886/327/107 885/326/107 841/325/107
f 845/284/107 887/328/107 886/327/107 843/283/107
f 847/329/107 888/330/107 887/328/107 845/284/107
f 849/331/107 889/332/107 888/330/107 847/329/107
f 851/333/107 890/334/107 889/332/107 849/331/107
f 853/335/107 891/336/107 890/334/107 851/333/107
f 855/337/107 892/338/107 891/336/107 853/335/107
f 857/339/107 893/340/107 892/338/107 855/337/107
f 859/341/107 894/342/107 893/340/107 857/339/107
f 861/343/107 895/344/107 894/342/107 859/341/107
f 863/345/107 896/346/107 895/344/107 861/343/107
f 801/286/107 865/287/107 896/346/107 863/345/107
f 899/347/78 963/347/78 964/348/78 900/348/78
f 817/301/99 937/301/99 938/303/99 819/303/99
f 845/284/82 951/284/82 952/329/82 847/329/82
f 819/303/100 938/303/100 939/305/100 821/305/100
f 847/329/83 952/329/83 953/331/83 849/331/83
f 821/305/101 939/305/101 940/307/101 823/307/101
f 849/331/108 953/331/108 954/333/108 851/333/108
f 823/307/109 940/307/109 941/309/109 825/309/109
f 851/333/85 954/333/85 955/335/85 853/335/85
f 825/309/103 941/309/103 942/311/103 827/311/103
f 853/335/86 955/335/86 956/337/86 855/337/86
f 827/311/104 942/311/104 943/313/104 829/313/104
f 801/286/91 929/286/91 930/285/91 803/285/91
f 855/337/110 956/337/110 957/339/110 857/339/110
f 829/313/73 943/313/73 944/315/73 831/315/73
f 803/285/92 930/285/92 931/289/92 805/289/92
f 857/339/88 957/339/88 958/341/88 859/341/88
f 831/315/106 944/315/106 945/317/106 833/317/106
f 805/289/93 931/289/93 932/291/93 807/291/93
f 859/341/89 958/341/89 959/343/89 861/343/89
f 833/317/76 945/317/76 946/319/76 835/319/76
f 807/291/94 932/291/94 933/293/94 809/293/94
f 861/343/56 959/343/56 960/345/56 863/345/56
f 835/319/77 946/319/77 947/321/77 837/321/77
f 809/293/95 933/293/95 934/295/95 811/295/95
f 863/345/90 960/345/90 929/286/90 801/286/90
f 837/321/78 947/321/78 948/323/78 839/323/78
f 811/295/96 934/295/96 935/297/96 813/297/96
f 839/323/79 948/323/79 949/325/79 841/325/79
f 813/297/97 935/297/97 936/299/97 815/299/97
f 841/325/80 949/325/80 950/283/80 843/283/80
f 815/299/98 936/299/98 937/301/98 817/301/98
f 898/349/107 930/285/107 929/286/107 897/350/107
f 899/347/107 931/289/107 930/285/107 898/349/107
f 900/348/107 932/291/107 931/289/107 899/347/107
f 901/351/107 933/293/107 932/291/107 900/348/107
f 902/352/107 934/295/107 933/293/107 901/351/107
f 903/353/107 935/297/107 934/295/107 902/352/107
f 904/354/107 936/299/107 935/297/107 903/353/107
f 905/355/107 937/301/107 936/299/107 904/354/107
f 906/356/107 938/303/107 937/301/107 905/355/107
f 907/357/107 939/305/107 938/303/107 906/356/107
f 908/358/107 940/307/107 939/305/107 907/357/107
f 909/359/107 941/309/107 940/307/107 908/358/107
f 910/360/107 942/311/107 941/309/107 909/359/107
f 911/361/107 943/313/107 942/311/107 910/360/107
f 912/362/107 944/315/107 943/313/107 911/361/107
f 913/363/107 945/317/107 944/315/107 912/362/107
f 914/364/107 946/319/107 945/317/107 913/363/107
f 915/365/107 947/321/107 946/319/107 914/364/107
f 916/366/107 948/323/107 947/321/107 915/365/107
f 917/367/107 949/325/107 948/323/107 916/366/107
f 918/368/107 950/283/107 949/325/107 917/367/107
f 919/369/107 951/284/107 950/283/107 918/368/107
f 920/370/107 952/329/107 951/284/107 919/369/107
f 921/371/107 953/331/107 952/329/107 920/370/107
f 922/372/107 954/333/107 953/331/107 921/371/107
f 923/373/107 955/335/107 954/333/107 922/372/107
f 924/374/107 956/337/107 955/335/107 923/373/107
f 925/375/107 957/339/107 956/337/107 924/374/107
f 926/376/107 958/341/107 957/339/107 925/375/107
f 927/377/107 959/343/107 958/341/107 926/376/107
f 928/378/107 960/345/107 959/343/107 927/377/107
f 897/350/107 929/286/107 960/345/107 928/378/107
f 961/350/107 992/378/107 991/377/107 990/376/107 989/375/107 988/374/107 987/373/107 986/372/107 985/371/107 984/370/107 983/369/107 982/368/107 981/367/107 980/366/107 979/365/107 978/364/107 977/363/107 976/362/107 975/361/107 974/360/107 973/359/107 972/358/107 971/357/107 970/356/107 969/355/107 968/354/107 967/353/107 966/352/107 965/351/107 964/348/107 963/347/107 962/349/107
f 926/376/104 990/376/104 991/377/104 927/377/104
f 913/363/91 977/363/91 978/364/91 914/364/91
f 900/348/79 964/348/79 965/351/79 901/351/79
f 927/377/73 991/377/73 992/378/73 928/378/73
f 914/364/92 978/364/92 979/365/92 915/365/92
f 901/351/80 965/351/80 966/352/80 902/352/80
f 928/378/106 992/378/106 961/350/106 897/350/106
f 915/365/93 979/365/93 980/366/93 916/366/93
f 902/352/81 966/352/81 967/353/81 903/353/81
f 916/366/94 980/366/94 981/367/94 917/367/94
f 903/353/82 967/353/82 968/354/82 904/354/82
f 917/367/95 981/367/95 982/368/95 918/368/95
f 904/354/83 968/354/83 969/355/83 905/355/83
f 918/368/96 982/368/96 983/369/96 919/369/96
f 905/355/84 969/355/84 970/356/84 906/356/84
f 919/369/97 983/369/97 984/370/97 920/370/97
f 906/356/85 970/356/85 971/357/85 907/357/85
f 920/370/98 984/370/98 985/371/98 921/371/98
f 907/357/86 971/357/86 972/358/86 908/358/86
f 921/371/111 985/371/111 986/372/111 922/372/111
f 908/358/87 972/358/87 973/359/87 909/359/87
f 922/372/100 986/372/100 987/373/100 923/373/100
f 909/359/88 973/359/88 974/360/88 910/360/88
f 923/373/101 987/373/101 988/374/101 924/374/101
f 910/360/89 974/360/89 975/361/89 911/361/89
f 897/350/76 961/350/76 962/349/76 898/349/76
f 924/374/109 988/374/109 989/375/109 925/375/109
f 911/361/56 975/361/56 976/362/56 912/362/56
f 898/349/77 962/349/77 963/347/77 899/347/77
f 925/375/103 989/375/103 990/376/103 926/376/103
f 912/362/90 976/362/90 977/363/90 913/363/90
o Plane
v -13.307633 -0.356211 13.307633
v 13.307633 -0.356211 13.307633
v -13.307633 -0.356211 -13.307633
v 13.307633 -0.356211 -13.307633
vn -0.0000 1.0000 -0.0000
vt 0.000000 0.000000
vt 1.000000 0.000000
vt 1.000000 1.000000
vt 0.000000 1.000000
s 0
usemtl Material.001
f 993/379/112 994/380/112 996/381/112 995/382/112
